# File produced by Open Asset Import Library (http://www.assimp.sf.net)
# (assimp v3.1.0)

mtllib beam-remover.obj.mtl

# 52 vertex positions
v  12.38 7.521 -1.21959
v  12.38 -7.479 -1.21959
v  -12.62 -7.479 -1.21959
v  0.88 -10.479 -1.21959
v  0.88 -12.479 -0.219589
v  0.88 -12.479 -1.21959
v  0.88 -10.479 -0.219589
v  -1.12 -12.479 -1.21959
v  -0.32 -8.879 -1.21226
v  -0.32 -8.57898 -0.212259
v  -0.32 -8.57898 -1.21226
v  -1.12 -10.479 -0.219589
v  -1.12 -12.479 -0.219589
v  -1.12 -10.479 -1.21959
v  -12.62 7.521 -0.21959
v  -12.62 -7.479 -0.21959
v  -12.62 7.521 -1.21959
v  -0.32 -9.379 1.42041
v  -0.72 -9.59898 2.06042
v  -0.32 -9.379 1.74041
v  0.0800002 -8.879 -0.212259
v  -0.32 -8.879 -0.212259
v  12.38 -7.479 -0.219588
v  12.38 7.521 -0.219588
v  -0.82 -11.979 0.0804114
v  0.58 -11.979 0.0804114
v  0.0800002 -8.57898 -1.21226
v  0.0800002 -8.879 -1.21226
v  -0.32 -8.57898 1.42041
v  0.0800002 -8.57898 -0.212259
v  -0.82 -10.979 0.0804114
v  0.58 -10.979 0.0804114
v  11.88 7.021 0.0804114
v  -12.12 7.021 0.0804093
v  -12.12 -6.97898 0.0804093
v  11.88 -6.97898 0.0804114
v  0.08 -9.379 1.74041
v  0.08 -8.879 1.42041
v  0.08 -8.879 1.74041
v  -0.32 -8.879 1.74041
v  -0.32 -8.879 1.42041
v  -0.32 -8.57898 1.74041
v  0.48 -9.59898 2.06042
v  0.08 -8.57898 1.42041
v  0.08 -8.57898 1.74041
v  0.48 -9.65898 2.06042
v  0.48 -9.59898 1.10041
v  -0.72 -9.65898 2.06042
v  -0.72 -9.59898 1.10041
v  -0.72 -9.65898 1.10041
v  0.48 -9.65898 1.10041
v  0.08 -9.379 1.42041

# 28 UV coordinates
vt 0.412121 0.371537 0
vt 0.412121 0.283741 0
vt 0.259344 0.283741 0
vt 0.341843 0.266181 0
vt 0.341843 0.254475 0
vt 0.329621 0.254475 0
vt 0.185348 0.451526 0
vt 0.185348 0.455845 0
vt 0.329621 0.266181 0
vt 0.259344 0.371537 0
vt 0.185348 0.462897 0
vt 0.187032 0.465661 0
vt 0.185348 0.464279 0
vt 0.183664 0.455845 0
vt 0.331454 0.257402 0
vt 0.34001 0.257402 0
vt 0.183664 0.451526 0
vt 0.331454 0.263255 0
vt 0.34001 0.263255 0
vt 0.409065 0.36861 0
vt 0.262399 0.36861 0
vt 0.262399 0.286667 0
vt 0.409065 0.286667 0
vt 0.183664 0.464279 0
vt 0.183664 0.462897 0
vt 0.181981 0.465661 0
vt 0.181981 0.461515 0
vt 0.187032 0.461515 0

# 26 vertex normals
vn 1.62125e-007 0 -1
vn 1 0 0
vn 0 -1 0
vn -1 0 0
vn 0 1 0
vn -0.481885 0.876234 0
vn 0 -0.514496 0.857493
vn 0 0 -1
vn 0 0.51448 0.857502
vn 0.707107 0 0.707106
vn -6.68697e-008 0.514495 0.857493
vn -6.13327e-008 0.514495 0.857493
vn -7.24067e-008 0.514495 0.857494
vn -0.514495 0 0.857494
vn -6.68704e-008 -0.51448 0.857503
vn -7.24074e-008 -0.51448 0.857502
vn 0.514495 0 0.857493
vn 0.514495 0 0.857493
vn -8.44399e-008 0 1
vn -0.707107 0 0.707106
vn 1 0 1.27776e-007
vn 0 0.824074 0.566482
vn 0 0 1
vn -6.13334e-008 -0.51448 0.857503
vn 0.481885 0.876234 0
vn 0 0.824066 -0.566494

# Mesh 'Root_beam-remover0' with 92 faces
g Root_beam-remover0
usemtl __DefaultEmpty
f  1/1/1 2/2/1 3/3/1
f  4/4/2 5/5/2 6/5/2
f  5/5/2 4/4/2 7/4/2
f  5/5/3 8/6/3 6/5/3
f  9/7/4 10/8/4 11/7/4
f  12/9/4 8/6/4 13/6/4
f  8/6/4 12/9/4 14/9/4
f  12/9/5 4/4/5 14/9/5
f  4/4/5 12/9/5 7/4/5
f  15/10/4 3/3/4 16/3/4
f  3/3/4 15/10/4 17/10/4
f  18/11/6 19/12/6 20/13/6
f  9/7/3 21/14/3 22/8/3
f  1/1/2 23/2/2 2/2/2
f  23/2/2 1/1/2 24/1/2
f  2/2/3 16/3/3 3/3/3
f  16/3/3 2/2/3 23/2/3
f  25/15/7 5/5/7 26/16/7
f  9/7/8 27/17/8 28/17/8
f  4/4/8 8/6/8 14/9/8
f  8/6/8 4/4/8 6/5/8
f  1/1/1 3/3/1 17/10/1
f  1/1/5 15/10/5 24/1/5
f  21/14/3 9/7/3 28/17/3
f  29/11/5 30/14/5 10/8/5
f  7/4/9 31/18/9 32/19/9
f  7/4/10 26/16/10 5/5/10
f  26/16/10 7/4/10 32/19/10
f  5/5/7 25/15/7 13/6/7
f  27/17/8 9/7/8 11/7/8
f  33/20/11 24/1/12 15/10/11
f  34/21/13 33/20/11 15/10/11
f  34/21/14 15/10/14 16/3/14
f  34/21/14 16/3/14 35/22/14
f  31/18/9 7/4/9 12/9/9
f  35/22/15 23/2/15 36/23/16
f  36/23/17 23/2/17 24/1/17
f  33/20/18 36/23/17 24/1/17
f  34/21/19 35/22/19 33/20/19
f  35/22/19 36/23/19 33/20/19
f  10/8/4 9/7/4 22/8/4
f  8/6/3 5/5/3 13/6/3
f  10/8/5 27/17/5 11/7/5
f  27/17/5 10/8/5 30/14/5
f  27/17/2 21/14/2 28/17/2
f  21/14/2 27/17/2 30/14/2
f  12/9/20 25/15/20 31/18/20
f  37/24/2 38/25/21 39/24/2
f  40/13/4 18/11/4 20/13/4
f  18/11/4 40/13/4 41/11/4
f  42/13/4 41/11/4 40/13/4
f  37/24/22 19/12/22 43/26/22
f  44/25/21 39/24/2 38/25/21
f  39/24/2 44/25/21 45/24/2
f  39/24/23 42/13/23 40/13/23
f  42/13/23 39/24/23 45/24/23
f  42/13/5 44/25/5 29/11/5
f  44/25/5 42/13/5 45/24/5
f  25/15/20 12/9/20 13/6/20
f  30/14/5 29/11/5 44/25/5
f  30/14/2 38/25/21 21/14/2
f  38/25/21 30/14/2 44/25/21
f  29/11/4 22/8/4 41/11/4
f  46/26/2 47/27/2 43/26/2
f  38/25/3 22/8/3 21/14/3
f  22/8/3 38/25/3 41/11/3
f  26/16/23 31/18/23 25/15/23
f  31/18/23 26/16/23 32/19/23
f  35/22/15 16/3/24 23/2/15
f  46/26/23 19/12/23 48/12/23
f  19/12/6 18/11/6 49/28/6
f  19/12/23 46/26/23 43/26/23
f  47/27/8 50/28/8 49/28/8
f  50/28/8 47/27/8 51/27/8
f  47/27/2 46/26/2 51/27/2
f  22/8/4 29/11/4 10/8/4
f  46/26/3 50/28/3 51/27/3
f  50/28/3 46/26/3 48/12/3
f  19/12/4 50/28/4 48/12/4
f  50/28/4 19/12/4 49/28/4
f  38/25/21 37/24/2 52/25/2
f  15/10/5 1/1/5 17/10/5
f  52/25/25 43/26/25 47/27/25
f  43/26/25 52/25/25 37/24/25
f  18/11/26 47/27/26 49/28/26
f  47/27/26 18/11/26 52/25/26
f  19/12/22 37/24/22 20/13/22
f  41/11/4 42/13/4 29/11/4
f  37/24/23 40/13/23 20/13/23
f  40/13/23 37/24/23 39/24/23
f  52/25/23 41/11/23 18/11/23
f  41/11/23 52/25/23 38/25/23

