# File produced by Open Asset Import Library (http://www.assimp.sf.net)
# (assimp v3.1.0)

mtllib open-truck-spawner.obj.mtl

# 48 vertex positions
v  0.08 -8.879 -1.21226
v  0.08 -8.57898 -1.21226
v  0.08 -8.57898 1.42041
v  0.08 -8.879 1.42041
v  -0.32 -9.379 1.74041
v  -0.72 -9.59898 2.06042
v  0.48 -9.59898 2.06042
v  0.08 -9.379 1.74041
v  -0.72 -9.65898 2.06042
v  0.48 -9.65898 2.06042
v  -12.62 7.521 -0.21959
v  -12.62 -7.479 -0.21959
v  -12.12 -6.97898 0.08041
v  -12.12 7.021 0.080409
v  11.88 -6.97898 0.080412
v  11.88 7.021 0.080411
v  12.38 7.521 -0.219588
v  12.38 -7.479 -0.219588
v  -12.62 7.521 -1.21959
v  -12.62 -7.479 -1.21959
v  12.38 7.521 -1.21959
v  12.38 -7.479 -1.21959
v  0.48 -9.59898 1.10041
v  0.08 -9.379 1.42041
v  0.48 -9.65898 1.10041
v  -0.72 -9.59898 1.10041
v  -0.72 -9.65898 1.10041
v  -0.32 -9.379 1.42041
v  0.08 -8.879 1.74041
v  -0.32 -8.879 1.74041
v  0.08 -8.57898 1.74041
v  -0.32 -8.57898 1.74041
v  -0.32 -8.879 1.42041
v  -0.32 -8.57898 1.42041
v  -0.32 -8.57898 -1.21226
v  -0.32 -8.879 -1.21226
v  0.88 -12.479 -0.219588
v  0.88 -10.479 -0.219589
v  0.58 -10.979 0.080412
v  0.58 -11.979 0.080412
v  -0.82 -10.979 0.080412
v  -1.12 -10.479 -0.219589
v  -1.12 -12.479 -0.219588
v  -0.82 -11.979 0.080412
v  -1.12 -12.479 -1.21959
v  -1.12 -10.479 -1.21959
v  0.88 -10.479 -1.21959
v  0.88 -12.479 -1.21959

# 26 UV coordinates
vt 0.131189 0.466175 0
vt 0.131189 0.472731 0
vt 0.130193 0.473528 0
vt 0.129197 0.474325 0
vt 0.132186 0.474325 0
vt 0.131189 0.473528 0
vt 0.259344 0.371537 0
vt 0.259344 0.283741 0
vt 0.262399 0.286667 0
vt 0.262399 0.36861 0
vt 0.409065 0.286667 0
vt 0.409065 0.36861 0
vt 0.412121 0.371537 0
vt 0.412121 0.283741 0
vt 0.132186 0.471934 0
vt 0.129197 0.471934 0
vt 0.130193 0.472731 0
vt 0.130193 0.466175 0
vt 0.341843 0.254475 0
vt 0.341843 0.266181 0
vt 0.34001 0.263255 0
vt 0.34001 0.257402 0
vt 0.331454 0.263255 0
vt 0.329621 0.266181 0
vt 0.329621 0.254475 0
vt 0.331454 0.257402 0

# 19 vertex normals
vn 1 0 0
vn 0 0.824074 0.566482
vn 0 0 1
vn -0.514495 0 0.857493
vn 0 0.514495 0.857493
vn 0 -0.51448 0.857503
vn 0 -0.51448 0.857502
vn 0.514495 0 0.857493
vn -1 0 0
vn 0 1 0
vn 0.481886 0.876234 0
vn 0 -1 0
vn 0 0 -1
vn 0 0.824066 -0.566494
vn -0.481885 0.876234 0
vn 0.707107 0 0.707106
vn -0.707107 0 0.707106
vn 0 -0.514496 0.857493
vn 0 0.514496 0.857493

# Mesh 'Root_open-truck-spawner0' with 84 faces
g Root_open-truck-spawner0
usemtl __DefaultEmpty
f  1/1/1 2/1/1 3/2/1
f  1/1/1 3/2/1 4/2/1
f  5/3/2 6/4/2 7/5/2
f  5/3/2 7/5/2 8/6/2
f  9/4/3 10/5/3 7/5/3
f  9/4/3 7/5/3 6/4/3
f  11/7/4 12/8/4 13/9/4
f  13/9/4 14/10/4 11/7/4
f  14/10/3 13/9/3 15/11/3
f  14/10/3 15/11/3 16/12/3
f  11/7/5 14/10/5 17/13/5
f  17/13/5 14/10/5 16/12/5
f  15/11/6 13/9/6 12/8/6
f  15/11/6 12/8/6 18/14/7
f  18/14/8 17/13/8 15/11/8
f  17/13/8 16/12/8 15/11/8
f  12/8/9 11/7/9 19/7/9
f  12/8/9 19/7/9 20/8/9
f  17/13/10 21/13/10 19/7/10
f  17/13/10 19/7/10 11/7/10
f  22/14/1 21/13/1 17/13/1
f  22/14/1 17/13/1 18/14/1
f  23/15/11 24/2/11 8/6/11
f  23/15/11 8/6/11 7/5/11
f  20/8/12 22/14/12 18/14/12
f  20/8/12 18/14/12 12/8/12
f  7/5/1 10/5/1 25/15/1
f  7/5/1 25/15/1 23/15/1
f  26/16/13 23/15/13 25/15/13
f  26/16/13 25/15/13 27/16/13
f  26/16/14 28/17/14 24/2/14
f  26/16/14 24/2/14 23/15/14
f  5/3/15 28/17/15 26/16/15
f  5/3/15 26/16/15 6/4/15
f  9/4/9 6/4/9 26/16/9
f  9/4/9 26/16/9 27/16/9
f  5/3/3 8/6/3 29/6/3
f  5/3/3 29/6/3 30/3/3
f  29/6/1 8/6/1 24/2/1
f  29/6/1 24/2/1 4/2/1
f  30/3/3 29/6/3 31/6/3
f  30/3/3 31/6/3 32/3/3
f  4/2/1 3/2/1 31/6/1
f  4/2/1 31/6/1 29/6/1
f  28/17/3 24/2/3 4/2/3
f  28/17/3 4/2/3 33/17/3
f  30/3/9 32/3/9 34/17/9
f  30/3/9 34/17/9 33/17/9
f  34/17/10 32/3/10 31/6/10
f  34/17/10 31/6/10 3/2/10
f  35/18/9 36/18/9 33/17/9
f  35/18/9 33/17/9 34/17/9
f  35/18/10 34/17/10 3/2/10
f  35/18/10 3/2/10 2/1/10
f  33/17/12 36/18/12 1/1/12
f  33/17/12 1/1/12 4/2/12
f  37/19/16 38/20/16 39/21/16
f  37/19/16 39/21/16 40/22/16
f  41/23/17 42/24/17 43/25/17
f  41/23/17 43/25/17 44/26/17
f  43/25/9 42/24/9 45/25/9
f  42/24/9 46/24/9 45/25/9
f  46/24/10 42/24/10 38/20/10
f  46/24/10 38/20/10 47/20/10
f  40/22/18 44/26/18 43/25/18
f  40/22/18 43/25/18 37/19/18
f  48/19/12 37/19/12 43/25/12
f  48/19/12 43/25/12 45/25/12
f  48/19/1 47/20/1 38/20/1
f  48/19/1 38/20/1 37/19/1
f  44/26/3 40/22/3 39/21/3
f  44/26/3 39/21/3 41/23/3
f  1/1/13 36/18/13 35/18/13
f  1/1/13 35/18/13 2/1/13
f  46/24/13 47/20/13 48/19/13
f  46/24/13 48/19/13 45/25/13
f  22/14/13 20/8/13 19/7/13
f  22/14/13 19/7/13 21/13/13
f  39/21/19 38/20/19 42/24/19
f  39/21/19 42/24/19 41/23/19
f  5/3/9 30/3/9 33/17/9
f  5/3/9 33/17/9 28/17/9
f  25/15/12 10/5/12 9/4/12
f  25/15/12 9/4/12 27/16/12

