# File produced by Open Asset Import Library (http://www.assimp.sf.net)
# (assimp v3.1.0)

mtllib road.obj.mtl

# 12 vertex positions
v  10 3 -1e-006
v  10 4.5 -0.5
v  0 3 1e-006
v  0 4.5 -0.499998
v  0 -3 2e-006
v  0 -4.5 -0.499998
v  10 -4.5 -0.5
v  10 -3 -1e-006
v  10 -4.5 -5
v  10 4.5 -5
v  0 -4.5 -5
v  0 4.5 -5

# 32 UV coordinates
vt 0.995849 0.661898 0
vt 0.995949 0.746799 0
vt 0.00471016 0.662242 0
vt 0.0048103 0.747143 0
vt 0.0043298 0.340064 0
vt 0.00422965 0.255162 0
vt 0.995367 0.254819 0
vt 0.995468 0.33972 0
vt 0.25524 0.253377 0
vt 0.645949 0.279424 0
vt 0.724091 0.253377 0
vt 0.333382 0.279424 0
vt 0.0967331 0.25179 0
vt 0.566278 0.251616 0
vt 0.488031 0.277731 0
vt 0.175 0.277847 0
vt 0.724091 0.0189509 0
vt 0.25524 0.0189509 0
vt 0.995367 0.252859 0
vt 0.00394422 0.00965428 0
vt 0.995082 0.00930804 0
vt 0.00422965 0.253205 0
vt 0.948295 0.0183531 0
vt 0.0467679 0.246134 0
vt 0.0467679 0.0183531 0
vt 0.948295 0.246134 0
vt 0.00118926 0.0065552 0
vt 0.992043 0.250452 0
vt 0.992328 0.00690126 0
vt 0.000904051 0.250106 0
vt 0.566191 0.0168434 0
vt 0.0966461 0.0170177 0

# 10 vertex normals
vn 1.59579e-007 0.316227 0.948683
vn 1.89429e-007 0.316227 0.948684
vn 2.19587e-007 -0.316228 0.948683
vn 3.14763e-007 -0.316227 0.948684
vn 1 0 0
vn -1 0 0
vn 9.53674e-008 -1 0
vn -1.90735e-007 -1.05964e-007 -1
vn 0 1 0
vn 3e-007 0 1

# Mesh 'Root_road0' with 20 faces
g Root_road0
usemtl __DefaultEmpty
f  1/1/1 2/2/1 3/3/1
f  2/2/2 4/4/2 3/3/2
f  5/5/3 6/6/3 7/7/3
f  7/7/4 8/8/4 5/5/4
f  2/9/5 8/10/5 7/11/5
f  2/9/5 1/12/5 8/10/5
f  4/13/6 6/14/6 5/15/6
f  4/13/6 5/15/6 3/16/6
f  9/17/5 10/18/5 7/11/5
f  7/11/5 10/18/5 2/9/5
f  7/19/7 11/20/7 9/21/7
f  11/20/7 7/19/7 6/22/7
f  10/23/8 11/24/8 12/25/8
f  11/24/8 10/23/8 9/26/8
f  12/27/9 2/28/9 10/29/9
f  2/28/9 12/27/9 4/30/9
f  8/8/10 3/3/10 5/5/10
f  3/3/10 8/8/10 1/1/10
f  11/31/6 6/14/6 12/32/6
f  6/14/6 4/13/6 12/32/6

