# File produced by Open Asset Import Library (http://www.assimp.sf.net)
# (assimp v3.1.0)

mtllib road-slab5.obj.mtl

# 8 vertex positions
v  2.5 -2.5 0.5
v  -2.5 -2.5 0
v  2.5 -2.5 0
v  -2.5 -2.5 0.5
v  -2.5 2.5 0.5
v  2.5 2.5 0
v  -2.5 2.5 0
v  2.5 2.5 0.5

# 12 UV coordinates
vt 0.565044 0.806161 0
vt 0.0249412 0.835734 0
vt 0.0249412 0.806161 0
vt 0.565044 0.835734 0
vt 0.558708 0.992324 0
vt 0.0142172 0.752222 0
vt 0.558708 0.752222 0
vt 0.0142172 0.992324 0
vt 0.0205565 0.835578 0
vt 0.565047 0.805194 0
vt 0.565047 0.835578 0
vt 0.0205565 0.805194 0

# 6 vertex normals
vn 0 -1 0
vn 0 1 0
vn 0 0 1
vn 0 0 -1
vn -1 0 0
vn 1 0 0

# Mesh 'Root_road-slab50' with 12 faces
g Root_road-slab50
usemtl __DefaultEmpty
f  1/1/1 2/2/1 3/3/1
f  2/2/1 1/1/1 4/4/1
f  5/3/2 6/4/2 7/2/2
f  6/4/2 5/3/2 8/1/2
f  1/5/3 5/6/3 4/7/3
f  5/6/3 1/5/3 8/8/3
f  6/6/4 2/5/4 7/8/4
f  2/5/4 6/6/4 3/7/4
f  5/9/5 2/10/5 4/11/5
f  2/10/5 5/9/5 7/12/5
f  6/9/6 1/10/6 3/11/6
f  1/10/6 6/9/6 8/12/6

