# File produced by Open Asset Import Library (http://www.assimp.sf.net)
# (assimp v3.1.0)

mtllib road-crossing.obj.mtl

# 36 vertex positions
v  5 5 -3
v  -5 -5 -3
v  -5 5 -3
v  4 4 0.1
v  4 5 0.3
v  4 5 0.1
v  4 4 0.3
v  4 -4 0.3
v  5 -4 0.1
v  4 -4 0.1
v  5 -4 0.3
v  -4 4 0.3
v  -5 4 0.1
v  -4 4 0.1
v  -5 4 0.3
v  -5 -4 0.3
v  -4 -4 0.1
v  -5 -4 0.1
v  4 -5 0.1
v  -4 -5 0.1
v  4 -5 0.3
v  -4 -5 0.3
v  -4 -4 0.3
v  -4 5 0.1
v  -4 5 0.3
v  5 -5 -3
v  5 4 0.3
v  5 4 0.1
v  -5 5 0.1
v  -5 5 0.3
v  5 5 0.3
v  5 -5 0.3
v  -5 -5 0.3
v  5 -5 0.1
v  5 5 0.1
v  -5 -5 0.1

# 69 UV coordinates
vt 0 0 0
vt 0.625 0.834774 0
vt 1.125 0.884774 0
vt 1.125 0.834774 0
vt 0.125 0.884774 0
vt -0.375 0.834774 0
vt -0.375 0.884774 0
vt 0.75 0.884774 0
vt 1.25 0.834774 0
vt 0.75 0.834774 0
vt 0.25 0.834774 0
vt -0.25 0.884774 0
vt 0.25 0.884774 0
vt 0.096094 0.803977 0
vt 0.896094 0.803977 0
vt 0.996094 0.974609 0
vt 0.125 0.834774 0
vt 0.625 0.884774 0
vt -0.25 0.834774 0
vt 1.25 0.884774 0
vt 0.1 0.797881 0
vt 0 0.797881 0
vt 0 0.964844 0
vt 0.421875 0.775391 0
vt 0.382422 0.796484 0
vt 0.382422 0.775391 0
vt 0.421875 0.796484 0
vt 0.066797 0.775391 0
vt 0.027344 0.796484 0
vt 0.027344 0.775391 0
vt 0.066797 0.796484 0
vt 0.066797 0.965234 0
vt 0.027344 0.986328 0
vt 0.027344 0.965234 0
vt 0.066797 0.986328 0
vt 0.421875 0.965234 0
vt 0.382422 0.986328 0
vt 0.382422 0.965234 0
vt 0.421875 0.986328 0
vt 0.952092 0.988281 0
vt 0.139983 0.782789 0
vt 0.861858 0.782789 0
vt 0.952092 0.782789 0
vt 0.049749 0.782789 0
vt 0.049749 0.988281 0
vt 0.9 0.797881 0
vt 1 0.964844 0
vt 1 0.797881 0
vt 0 0.992187 0
vt 0.9 0.810547 0
vt 0.1 0.810547 0
vt 0 0.810547 0
vt 1 0.992187 0
vt 1 0.810547 0
vt 0.996094 0.803977 0
vt -0.003906 0.974609 0
vt -0.003906 0.803977 0
vt 0.955426 0.136098 0
vt 0.865559 0.858081 0
vt 0.865559 0.136098 0
vt 0.140831 0.136098 0
vt 0.955426 0.858081 0
vt 0.865559 0.95405 0
vt 0.140831 0.95405 0
vt 0.140831 0.858081 0
vt 0.053711 0.136098 0
vt 0.140831 0.055388 0
vt 0.865559 0.055388 0
vt 0.053711 0.858081 0

# 6 vertex normals
vn 0 0 -1
vn -1 0 0
vn 0 1 0
vn 0 -1 0
vn 1 0 0
vn 0 0 1

# Mesh 'Root_road-crossing0' with 58 faces
g Root_road-crossing0
usemtl __DefaultEmpty
f  1/1/1 2/1/1 3/1/1
f  4/2/2 5/3/2 6/4/2
f  5/5/2 4/6/2 7/7/2
f  8/8/3 9/9/3 10/10/3
f  9/11/3 8/12/3 11/13/3
f  12/8/4 13/11/4 14/10/4
f  13/11/4 12/8/4 15/13/4
f  16/13/3 17/10/3 18/11/3
f  19/14/4 20/15/4 2/16/4
f  19/17/2 8/18/2 10/2/2
f  8/18/2 19/17/2 21/5/2
f  22/5/5 17/2/5 23/18/5
f  17/2/5 22/5/5 20/17/5
f  12/18/5 24/4/5 25/3/5
f  24/17/5 12/7/5 14/6/5
f  2/1/1 1/1/1 26/1/1
f  27/13/4 4/19/4 28/11/4
f  4/10/4 27/20/4 7/8/4
f  13/21/2 29/22/2 3/23/2
f  30/24/6 12/25/6 25/26/6
f  12/25/6 30/24/6 15/27/6
f  5/28/6 27/29/6 31/30/6
f  27/29/6 5/28/6 7/31/6
f  8/32/6 32/33/6 11/34/6
f  32/33/6 8/32/6 21/35/6
f  16/36/6 22/37/6 23/38/6
f  22/37/6 16/36/6 33/39/6
f  26/40/5 28/41/5 9/42/5
f  9/42/5 34/43/5 26/40/5
f  35/44/5 28/41/5 1/45/5
f  27/18/5 28/2/5 35/4/5
f  31/5/5 27/7/5 35/17/5
f  9/2/5 11/18/5 34/17/5
f  11/18/5 32/5/5 34/17/5
f  18/46/2 13/21/2 3/23/2
f  13/2/2 15/18/2 29/4/2
f  15/18/2 30/3/2 29/4/2
f  36/17/2 33/5/2 18/2/2
f  33/5/2 16/18/2 18/2/2
f  3/23/2 2/47/2 18/46/2
f  18/46/2 2/47/2 36/48/2
f  28/41/5 26/40/5 1/45/5
f  1/49/3 24/50/3 6/51/3
f  6/51/3 35/52/3 1/49/3
f  29/11/3 30/13/3 24/10/3
f  30/13/3 25/8/3 24/10/3
f  6/10/3 31/20/3 35/9/3
f  6/10/3 5/8/3 31/20/3
f  1/49/3 3/53/3 24/50/3
f  24/50/3 3/53/3 29/54/3
f  17/10/3 16/13/3 23/8/3
f  20/15/4 36/55/4 2/16/4
f  20/10/4 22/8/4 36/11/4
f  22/8/4 33/13/4 36/11/4
f  34/11/4 21/12/4 19/19/4
f  34/11/4 32/13/4 21/12/4
f  2/16/4 26/56/4 19/14/4
f  19/14/4 26/56/4 34/57/4

# Mesh 'Root_road-crossing1' with 10 faces
g Root_road-crossing1
usemtl __DefaultEmpty
f  13/58/6 17/59/6 14/60/6
f  14/60/6 17/59/6 4/61/6
f  13/58/6 18/62/6 17/59/6
f  20/63/6 19/64/6 17/59/6
f  4/61/6 10/65/6 28/66/6
f  17/59/6 10/65/6 4/61/6
f  19/64/6 10/65/6 17/59/6
f  4/61/6 6/67/6 24/68/6
f  10/65/6 9/69/6 28/66/6
f  14/60/6 4/61/6 24/68/6

