# File produced by Open Asset Import Library (http://www.assimp.sf.net)
# (assimp v3.1.0)

mtllib road-runway-middle.obj.mtl

# 20 vertex positions
v  120 20 -5
v  120 20 -1
v  120 -20 -5
v  120 -20 -1
v  -7e-006 -20 -5
v  -1e-005 -20 -1
v  7e-006 20 -1
v  1e-005 20 -5
v  120 13.34 0
v  120 -13.3435 0
v  -7e-006 -13.3432 0
v  1.4e-005 13.34 0
v  80 20 -1
v  80 13.34 0
v  40 20 -1
v  40 13.34 0
v  80 -13.3434 0
v  80 -20 -1
v  40 -13.3433 0
v  40 -20 -1

# 36 UV coordinates
vt 0.273776 -0.190625 0
vt 0.330437 -0.190451 0
vt 0.272038 0.375984 0
vt 0.328699 0.376158 0
vt 0.076011 -0.190451 0
vt 0.132672 -0.190625 0
vt 0.081226 1.50937 0
vt 0.137887 1.5092 0
vt 0.201501 -0.190625 0
vt 0.258162 -0.190451 0
vt 0.256424 0.376157 0
vt 0.199763 0.375984 0
vt 0.199763 1.5092 0
vt 0.143102 1.50937 0
vt 0.194548 -0.190625 0
vt 0.137887 -0.190451 0
vt 0.344313 -0.096067 0
vt 0.343154 0.28191 0
vt 0.272038 -0.096112 0
vt 0.270879 0.281861 0
vt 1 1 0
vt 0.847101 1 0
vt 1 0 0
vt 0.847099 0 0
vt 0 0 0
vt 0.152896 0 0
vt -0 1 0
vt 0.152899 1 0
vt 0.847106 1 0
vt 0.847104 0 0
vt 0.156415 1 0
vt 0.156413 0 0
vt 0.843582 0 0
vt 0.843585 1 0
vt 0.156421 1 0
vt 0.156418 0 0

# 11 vertex normals
vn 1 0 0
vn -0 -1 -1e-006
vn -1 0 -1e-006
vn 0 1 1e-006
vn 1 -1e-006 -2.3e-005
vn -1 1e-006 -2e-006
vn 0 0.148486 0.988915
vn 0 0 1
vn 0 -0.148559 0.988903
vn 0 -0.148557 0.988904
vn 0 -0.148555 0.988904

# Mesh 'Root_road-runway-middle0' with 12 faces
g Root_road-runway-middle0
usemtl __DefaultEmpty
f  1/1/1 2/2/1 3/3/1
f  2/2/1 4/4/1 3/3/1
f  3/5/2 4/6/2 5/7/2
f  4/6/2 6/8/2 5/7/2
f  5/9/3 6/10/3 7/11/3
f  5/9/3 7/11/3 8/12/3
f  2/13/4 1/14/4 7/15/4
f  1/14/4 8/16/4 7/15/4
f  2/2/5 9/17/5 4/4/5
f  9/17/5 10/18/5 4/4/5
f  6/10/6 11/19/6 12/20/6
f  6/10/6 12/20/6 7/11/6

# Mesh 'Root_road-runway-middle1' with 18 faces
g Root_road-runway-middle1
usemtl __DefaultEmpty
f  13/21/7 14/22/7 2/23/7
f  14/22/7 9/24/7 2/23/7
f  15/25/7 16/26/7 13/27/7
f  16/26/7 14/28/7 13/27/7
f  7/21/7 12/29/7 15/23/7
f  12/29/7 16/30/7 15/23/7
f  14/22/8 17/31/8 9/24/8
f  17/31/8 10/32/8 9/24/8
f  17/31/9 18/27/9 10/32/9
f  18/27/9 4/25/9 10/32/9
f  16/26/8 19/33/8 14/28/8
f  19/33/8 17/34/8 14/28/8
f  19/33/10 20/23/10 17/34/10
f  20/23/10 18/21/10 17/34/10
f  12/29/8 11/35/8 16/30/8
f  11/35/8 19/36/8 16/30/8
f  11/35/11 6/27/11 19/36/11
f  6/27/11 20/25/11 19/36/11

