# File produced by Open Asset Import Library (http://www.assimp.sf.net)
# (assimp v3.1.0)

mtllib roadborderleft.obj.mtl

# 16 vertex positions
v  10 4 -1e-006
v  10 4.5 -0.0500009
v  10 4.5 0.499999
v  10 4.5 -5
v  10 4 0.499999
v  10 -4.5 -5
v  10 -3 0
v  10 -4.5 -0.5
v  0 -3 0
v  0 -4.5 -5
v  0 -4.5 -0.5
v  0 4.5 -0.0500009
v  0 4.5 -5
v  0 4 -1e-006
v  0 4.5 0.499999
v  0 4 0.499999

# 50 UV coordinates
vt 0.309462 0.790305 0
vt 0.253906 0.7875 0
vt 0.253906 0.818359 0
vt 0 0 0
vt 5.96046e-008 0.277734 0
vt 0.0555558 0.28054 0
vt 0.309462 0.818359 0
vt 1 0 0
vt 0.833333 0.28054 0
vt 1 0.252486 0
vt 0.826715 0.279772 0
vt 0.990451 0.00278318 0
vt 0.990451 0.252073 0
vt 0.00802949 0.277002 0
vt 0.0080294 0.00278318 0
vt 0.0626086 0.279772 0
vt 0.129015 0.783678 0
vt 0.0744358 0.811377 0
vt 0.0744357 0.780908 0
vt 0.129015 0.811377 0
vt 0.990325 0.246419 0
vt 0.00312792 -0.000407577 0
vt 0.990615 0.000546336 0
vt 0.00283811 0.245465 0
vt 0.993942 0.780913 0
vt 0.00674436 0.75479 0
vt 0.994232 0.754891 0
vt 0.00645455 0.780812 0
vt 0.00249565 0.779763 0
vt 0.990036 0.756092 0
vt 0.989984 0.780279 0
vt 0.0025483 0.755576 0
vt 0.00249565 0.758278 0
vt 0.989932 0.782981 0
vt 0.00244278 0.782466 0
vt 0.989984 0.758794 0
vt 0.00544539 0.734682 0
vt 0.993101 0.658711 0
vt 0.992935 0.735198 0
vt 0.00561199 0.658195 0
vt 0.0292939 0.01957 0
vt 0.962406 0.248693 0
vt 0.0234835 0.247551 0
vt 0.968217 0.0207128 0
vt 0.00544539 0.247804 0
vt 0.992461 0.0296038 0
vt 0.00497174 0.0301196 0
vt 0.992935 0.247289 0
vt 0.993838 0.320091 0
vt 0.00634903 0.319575 0

# 8 vertex normals
vn 1 0 0
vn -1 0 0
vn 0 1 0
vn 0 0 1
vn 0 -1 0
vn 0 -0.316228 0.948683
vn 0 0 -1
vn 0 1.42857e-007 1

# Mesh 'Root_roadborderleft0' with 12 faces
g Root_roadborderleft0
usemtl __DefaultEmpty
f  1/1/1 2/2/1 3/3/1
f  4/4/1 2/5/1 1/6/1
f  3/3/1 5/7/1 1/1/1
f  6/8/1 4/4/1 7/9/1
f  7/9/1 4/4/1 1/6/1
f  8/10/1 6/8/1 7/9/1
f  9/11/2 10/12/2 11/13/2
f  12/14/2 13/15/2 14/16/2
f  14/16/2 13/15/2 9/11/2
f  9/11/2 13/15/2 10/12/2
f  14/17/2 15/18/2 12/19/2
f  14/17/2 16/20/2 15/18/2

# Mesh 'Root_roadborderleft1' with 16 faces
g Root_roadborderleft1
usemtl __DefaultEmpty
f  12/21/3 4/22/3 13/23/3
f  4/22/3 12/21/3 2/24/3
f  15/25/3 2/26/3 12/27/3
f  2/26/3 15/25/3 3/28/3
f  5/29/4 15/30/4 16/31/4
f  15/30/4 5/29/4 3/32/4
f  5/33/5 14/34/5 1/35/5
f  14/34/5 5/33/5 16/36/5
f  8/37/6 9/38/6 11/39/6
f  9/38/6 8/37/6 7/40/6
f  4/41/7 10/42/7 13/43/7
f  10/42/7 4/41/7 6/44/7
f  8/45/5 10/46/5 6/47/5
f  10/46/5 8/45/5 11/48/5
f  7/40/8 14/49/8 9/38/8
f  14/49/8 7/40/8 1/50/8

