# File produced by Open Asset Import Library (http://www.assimp.sf.net)
# (assimp v3.1.0)

mtllib roadborderboth.obj.mtl

# 20 vertex positions
v  10 4.5 0.499999
v  10 4 -1e-006
v  10 4.5 -0.150001
v  10 4 0.499999
v  10 4.5 -5
v  10 -4.5 -5
v  10 -4 0
v  10 -4.5 -0.0500003
v  10 -4.5 0.5
v  10 -4 0.499999
v  0 -4 0
v  0 -4.5 0.5
v  0 -4 0.499999
v  0 -4.5 -0.0500003
v  0 -4.5 -5
v  0 4 -1e-006
v  0 4.5 -0.150001
v  0 4.5 -5
v  0 4.5 0.499999
v  0 4 0.499999

# 74 UV coordinates
vt 0.132813 0.832031 0
vt 0.188368 0.806996 0
vt 0.132813 0.799485 0
vt 0.188368 0.832031 0
vt 5.96046e-008 0.242844 0
vt 0.0555558 0.250355 0
vt 0 1.19209e-007 0
vt 1 1.19209e-007 0
vt 0.944445 0.250355 0
vt 1 0.247851 0
vt 0.722656 0.814258 0
vt 0.667101 0.816761 0
vt 0.722656 0.841797 0
vt 1 0.275391 0
vt 0.944445 0.275391 0
vt 0.0555558 0.275391 0
vt 0.667101 0.841797 0
vt 0.663195 0.806463 0
vt 0.71875 0.832031 0
vt 0.663195 0.832031 0
vt 0.71875 0.803906 0
vt 0.944445 0.255682 0
vt 1 0.253125 0
vt 0.0555558 0.255682 0
vt 5.96046e-008 0.248011 0
vt 0.258681 0.810369 0
vt 0.203125 0.835938 0
vt 0.203125 0.802699 0
vt 1 0.28125 0
vt 0.0555558 0.28125 0
vt 0.944445 0.28125 0
vt 0.258681 0.835938 0
vt 5.96046e-008 0.28125 0
vt 5.96046e-008 0.275391 0
vt 0.00290722 0.869991 0
vt 0.996038 0.899947 0
vt 0.00320509 0.900066 0
vt 0.918342 0.250064 0
vt 0.0806133 0.0292289 0
vt 0.932136 0.0320892 0
vt 0.00681347 0.826346 0
vt 0.999591 0.802326 0
vt 0.999646 0.825833 0
vt 0.00675947 0.802839 0
vt 0.00279916 0.751987 0
vt 0.995685 0.774982 0
vt 0.00285322 0.775495 0
vt 0.995631 0.751474 0
vt 0.00279916 0.689487 0
vt 0.994765 0.312854 0
vt 0.995631 0.688974 0
vt 0.00193315 0.313367 0
vt 0.998671 0.840198 0
vt 0.00578537 0.817203 0
vt 0.998617 0.81669 0
vt 0.0058394 0.840711 0
vt 0.00187912 0.787906 0
vt 0.994657 0.763886 0
vt 0.994711 0.787393 0
vt 0.00182509 0.764399 0
vt 0.00543363 0.789973 0
vt 0.998563 0.816054 0
vt 0.00573134 0.816158 0
vt 0.998265 0.789869 0
vt 0.00122967 0.00681001 0
vt 0.994359 0.247975 0
vt 0.00152738 0.248935 0
vt 0.994061 0.00584978 0
vt 0.996335 0.0236242 0
vt 0.00320509 0.249288 0
vt 0.996038 0.250186 0
vt 0.00350296 0.0227257 0
vt 0.99574 0.869871 0
vt 0.0668188 0.247204 0

# 8 vertex normals
vn 1 0 0
vn -1 0 0
vn 0 1 0
vn 0 0 -1
vn 0 0 1
vn 0 -1 0
vn 0 1.25e-007 1
vn 0 2.02656e-006 1

# Mesh 'Root_roadborderboth0' with 20 faces
g Root_roadborderboth0
usemtl __DefaultEmpty
f  1/1/1 2/2/1 3/3/1
f  4/4/1 2/2/1 1/1/1
f  3/5/1 2/6/1 5/7/1
f  5/7/1 2/6/1 6/8/1
f  6/8/1 7/9/1 8/10/1
f  8/11/1 7/12/1 9/13/1
f  2/6/1 7/9/1 6/8/1
f  9/14/1 10/15/1 4/16/1
f  7/12/1 10/17/1 9/13/1
f  11/18/2 12/19/2 13/20/2
f  14/21/2 12/19/2 11/18/2
f  11/22/2 15/8/2 14/23/2
f  16/24/2 15/8/2 11/22/2
f  17/25/2 18/7/2 16/24/2
f  16/24/2 18/7/2 15/8/2
f  16/26/2 19/27/2 17/28/2
f  12/29/2 20/30/2 13/31/2
f  16/26/2 20/32/2 19/27/2
f  19/33/2 20/30/2 12/29/2
f  1/34/1 9/14/1 4/16/1

# Mesh 'Root_roadborderboth1' with 20 faces
g Root_roadborderboth1
usemtl __DefaultEmpty
f  19/35/3 3/36/3 17/37/3
f  5/38/4 15/39/4 18/40/4
f  19/41/5 4/42/5 1/43/5
f  4/42/5 19/41/5 20/44/5
f  16/45/6 4/46/6 20/47/6
f  4/46/6 16/45/6 2/48/6
f  16/49/7 7/50/7 2/51/7
f  7/50/7 16/49/7 11/52/7
f  7/53/3 13/54/3 10/55/3
f  13/54/3 7/53/3 11/56/3
f  13/57/8 9/58/8 10/59/8
f  9/58/8 13/57/8 12/60/8
f  14/61/6 9/62/6 12/63/6
f  9/62/6 14/61/6 8/64/6
f  15/65/6 8/66/6 14/67/6
f  8/66/6 15/65/6 6/68/6
f  5/69/3 17/70/3 3/71/3
f  17/70/3 5/69/3 18/72/3
f  3/36/3 19/35/3 1/73/3
f  15/39/4 5/38/4 6/74/4

