# File produced by Open Asset Import Library (http://www.assimp.sf.net)
# (assimp v3.1.0)

mtllib road-runway-end.obj.mtl

# 20 vertex positions
v  120 20 -5
v  120 20 -1
v  120 -20 -5
v  120 -20 -1
v  -7e-006 -20 -5
v  -1e-005 -20 -1
v  7e-006 20 -1
v  1e-005 20 -5
v  40 20 -1
v  40 13.34 0
v  80 20 -1
v  80 13.34 0
v  40 -13.3433 0
v  80 -13.3434 0
v  40 -20 -1
v  80 -20 -1
v  120 13.34 0
v  120 -13.3435 0
v  -7e-006 -13.3432 0
v  1.4e-005 13.34 0

# 36 UV coordinates
vt 0.273776 -0.190625 0
vt 0.330437 -0.190451 0
vt 0.272038 0.375984 0
vt 0.328699 0.376158 0
vt 0.076011 -0.190451 0
vt 0.132672 -0.190625 0
vt 0.081226 1.50937 0
vt 0.137887 1.5092 0
vt 0.201501 -0.190625 0
vt 0.258162 -0.190451 0
vt 0.256424 0.376157 0
vt 0.199763 0.375984 0
vt 0.199763 1.5092 0
vt 0.143102 1.50937 0
vt 0.194548 -0.190625 0
vt 0.137887 -0.190451 0
vt 1 1 0
vt 0.847104 1 0
vt 1 0 0
vt 0.847101 0 0
vt 0.156418 1 0
vt 0.156415 0 0
vt 0 1 0
vt -0 0 0
vt 0.344313 -0.096067 0
vt 0.343154 0.28191 0
vt 0.272038 -0.096112 0
vt 0.270879 0.281861 0
vt 0.152899 0 0
vt 0.152901 1 0
vt 0.843584 0 0
vt 0.843587 1 0
vt 0.847106 1 0
vt 0.847104 0 0
vt 0.156421 1 0
vt 0.156418 0 0

# 11 vertex normals
vn 1 0 0
vn -0 -1 -1e-006
vn -1 0 -1e-006
vn 0 1 1e-006
vn 0 0.148486 0.988915
vn 0 0 1
vn 0 -0.148557 0.988904
vn 1 -1e-006 -2.3e-005
vn -1 1e-006 -2e-006
vn 0 -0.148559 0.988903
vn 0 -0.148555 0.988904

# Mesh 'Root_road-runway-end0' with 18 faces
g Root_road-runway-end0
usemtl __DefaultEmpty
f  1/1/1 2/2/1 3/3/1
f  2/2/1 4/4/1 3/3/1
f  3/5/2 4/6/2 5/7/2
f  4/6/2 6/8/2 5/7/2
f  5/9/3 6/10/3 7/11/3
f  5/9/3 7/11/3 8/12/3
f  2/13/4 1/14/4 7/15/4
f  1/14/4 8/16/4 7/15/4
f  9/17/5 10/18/5 11/19/5
f  10/18/5 12/20/5 11/19/5
f  10/18/6 13/21/6 12/20/6
f  13/21/6 14/22/6 12/20/6
f  13/21/7 15/23/7 14/22/7
f  15/23/7 16/24/7 14/22/7
f  2/2/8 17/25/8 4/4/8
f  17/25/8 18/26/8 4/4/8
f  6/10/9 19/27/9 20/28/9
f  6/10/9 20/28/9 7/11/9

# Mesh 'Root_road-runway-end1' with 6 faces
g Root_road-runway-end1
usemtl __DefaultEmpty
f  11/24/5 12/29/5 2/23/5
f  12/29/5 17/30/5 2/23/5
f  12/29/6 14/31/6 17/30/6
f  14/31/6 18/32/6 17/30/6
f  14/31/10 16/19/10 18/32/10
f  16/19/10 4/17/10 18/32/10

# Mesh 'Root_road-runway-end2' with 6 faces
g Root_road-runway-end2
usemtl __DefaultEmpty
f  7/17/5 20/33/5 9/19/5
f  20/33/5 10/34/5 9/19/5
f  20/33/6 19/35/6 10/34/6
f  19/35/6 13/36/6 10/34/6
f  19/35/11 6/23/11 13/36/11
f  6/23/11 15/24/11 13/36/11

