# File produced by Open Asset Import Library (http://www.assimp.sf.net)
# (assimp v3.1.0)

mtllib sign-stop.obj.mtl

# 25 vertex positions
v  0.02 -0.020001 2.4594
v  0.02 -0.02 -0.099597
v  0.02 0.019999 2.4594
v  0.02 0.02 -0.099597
v  -0.02 -0.020001 2.4594
v  -0.02 0.019999 2.4594
v  -0.02 0.02 -0.099597
v  -0.02 -0.02 -0.099597
v  0.001207 -0.018781 2.04525
v  0.416875 -0.018781 2.21765
v  0.41703 -0.018781 1.87323
v  0.173601 -0.018781 1.62959
v  -0.170814 -0.018781 1.62943
v  -0.414462 -0.018781 1.87286
v  -0.414617 -0.018781 2.21727
v  -0.171188 -0.018781 2.46092
v  0.173227 -0.018781 2.46108
v  0.416875 -0.031111 2.21765
v  0.41703 -0.031111 1.87323
v  0.173601 -0.03111 1.62959
v  -0.170814 -0.03111 1.62943
v  -0.414462 -0.03111 1.87286
v  -0.414616 -0.03111 2.21728
v  -0.171187 -0.03111 2.46092
v  0.173228 -0.03111 2.46108

# 61 UV coordinates
vt 0.111878 0.999524 0
vt 0.111878 2.40207e-005 0
vt 0.127508 0.999524 0
vt 0.127508 2.40207e-005 0
vt 0.273069 0.044576 0
vt 0.237684 0.044467 0
vt 0.237793 0.00908202 0
vt 0.273177 0.00919098 0
vt 0.025418 2.40207e-005 0
vt 0.025418 0.999524 0
vt 0.009788 2.40207e-005 0
vt 0.009788 0.999524 0
vt 0.056116 2.40207e-005 0
vt 0.056116 0.999524 0
vt 0.040486 0.999524 0
vt 0.040486 2.40207e-005 0
vt 0.090813 0.999524 0
vt 0.075183 0.999524 0
vt 0.090813 2.40207e-005 0
vt 0.075183 2.40207e-005 0
vt 0.539704 0.632092 0
vt 0.203767 0.493119 0
vt 0.400429 0.29628 0
vt 0.678677 0.296154 0
vt 0.875516 0.492817 0
vt 0.875641 0.771065 0
vt 0.678979 0.967904 0
vt 0.400731 0.968029 0
vt 0.203892 0.771366 0
vt 0.914459 0.662021 0
vt 0.900577 0.661979 0
vt 0.901767 0.274201 0
vt 0.915649 0.274243 0
vt 0.902609 0 0
vt 0.91649 4.29749e-005 0
vt 0.971029 0.662021 0
vt 0.957148 0.661979 0
vt 0.958337 0.274201 0
vt 0.972219 0.274243 0
vt 0.973054 4.29749e-005 0
vt 0.959172 0 0
vt 0.946368 0.662022 0
vt 0.932486 0.661979 0
vt 0.947558 0.274244 0
vt 0.933676 0.274201 0
vt 0.948398 4.29749e-005 0
vt 0.934516 0 0
vt 1 0.387778 0
vt 0.986118 0.38782 0
vt 0.99881 0 0
vt 0.984929 4.20213e-005 0
vt 0.913618 0.936221 0
vt 0.899736 0.936179 0
vt 0.707293 0.000186026 0
vt 0.000186 0.292707 0
vt 0.293156 0 0
vt 1 0.293157 0
vt 0 0.706844 0
vt 0.999814 0.707293 0
vt 0.292708 0.999815 0
vt 0.706844 1 0

# 13 vertex normals
vn 1 0 0
vn 0 0 1
vn 0 1 0
vn -0 -1 -0
vn -1 0 0
vn 1 -7e-006 0.00045
vn 0.707425 -1e-005 -0.706789
vn 0.00045 -1.9e-005 -1
vn -0.706789 -1.6e-005 -0.707424
vn -1 -5e-006 -0.000449
vn -0.707424 2.2e-005 0.706789
vn -0.000448 3.9e-005 1
vn 0.706789 2.6e-005 0.707424

# Mesh 'Root_sign-stop0' with 34 faces
g Root_sign-stop0
usemtl __DefaultEmpty
f  1/1/1 2/2/1 3/3/1
f  2/2/1 4/4/1 3/3/1
f  5/5/2 1/6/2 3/7/2
f  5/5/2 3/7/2 6/8/2
f  7/9/3 6/10/3 4/11/3
f  6/10/3 3/12/3 4/11/3
f  5/13/4 8/14/4 2/15/4
f  5/13/4 2/15/4 1/16/4
f  7/17/5 8/18/5 6/19/5
f  8/18/5 5/20/5 6/19/5
f  9/21/3 10/22/3 11/23/3
f  9/21/3 11/23/3 12/24/3
f  9/21/3 12/24/3 13/25/3
f  9/21/3 13/25/3 14/26/3
f  9/21/3 14/26/3 15/27/3
f  9/21/3 15/27/3 16/28/3
f  9/21/3 16/28/3 17/29/3
f  9/21/3 17/29/3 10/22/3
f  10/30/6 18/31/6 19/32/6
f  10/30/6 19/32/6 11/33/6
f  11/33/7 19/32/7 20/34/7
f  11/33/7 20/34/7 12/35/7
f  12/36/8 20/37/8 21/38/8
f  12/36/8 21/38/8 13/39/8
f  13/39/9 21/38/9 14/40/9
f  21/38/9 22/41/9 14/40/9
f  14/42/10 22/43/10 15/44/10
f  22/43/10 23/45/10 15/44/10
f  15/44/11 23/45/11 16/46/11
f  23/45/11 24/47/11 16/46/11
f  16/48/12 24/49/12 17/50/12
f  24/49/12 25/51/12 17/50/12
f  17/52/13 25/53/13 10/30/13
f  25/53/13 18/31/13 10/30/13

# Mesh 'Root_sign-stop1' with 6 faces
g Root_sign-stop1
usemtl __DefaultEmpty
f  20/54/4 22/55/4 21/56/4
f  19/57/4 22/55/4 20/54/4
f  19/57/4 23/58/4 22/55/4
f  18/59/4 23/58/4 19/57/4
f  18/59/4 24/60/4 23/58/4
f  25/61/4 24/60/4 18/59/4

