# File produced by Open Asset Import Library (http://www.assimp.sf.net)
# (assimp v3.1.0)

mtllib sign-warning.obj.mtl

# 24 vertex positions
v  0.02 -0.020001 2.4594
v  0.02 -0.02 -0.099597
v  0.02 0.019999 2.4594
v  0.02 0.02 -0.099597
v  -0.02 -0.020001 2.4594
v  -0.02 0.019999 2.4594
v  -0.02 0.02 -0.099597
v  -0.02 -0.02 -0.099597
v  -0.476503 -0.020066 1.64926
v  -0.451044 -0.020066 1.61717
v  -0.451044 -0.029522 1.61717
v  -0.476503 -0.029522 1.64926
v  3.7e-005 -0.029522 2.4367
v  0.02195 -0.029522 2.4367
v  3.7e-005 -0.020066 2.4367
v  0.02195 -0.020066 2.4367
v  -0.021876 -0.020066 2.4367
v  -0.021876 -0.029522 2.4367
v  0.459655 -0.020066 1.61596
v  0.459655 -0.029522 1.61596
v  0.468331 -0.020066 1.63344
v  0.468331 -0.029522 1.63344
v  0.477007 -0.029522 1.65093
v  0.477007 -0.020066 1.65093

# 58 UV coordinates
vt 0.111878 0.999524 0
vt 0.111878 2.40207e-005 0
vt 0.127508 0.999524 0
vt 0.127508 2.40207e-005 0
vt 0.273069 0.044576 0
vt 0.237684 0.044467 0
vt 0.273177 0.00919098 0
vt 0.237793 0.00908202 0
vt 0.025418 2.40207e-005 0
vt 0.025418 0.999524 0
vt 0.009788 2.40207e-005 0
vt 0.009788 0.999524 0
vt 0.056116 2.40207e-005 0
vt 0.056116 0.999524 0
vt 0.040486 2.40207e-005 0
vt 0.040486 0.999524 0
vt 0.090813 0.999524 0
vt 0.075183 0.999524 0
vt 0.090813 2.40207e-005 0
vt 0.075183 2.40207e-005 0
vt 0.155819 0.00172102 0
vt 0.155819 0.040602 0
vt 0.147454 0.040602 0
vt 0.147454 0.00172102 0
vt 0.18344 0.779365 0
vt 0.18344 0.745045 0
vt 0.191806 0.779339 0
vt 0.191806 0.74502 0
vt 0.150805 0.94827 0
vt 0.538685 0.274849 0
vt 0.557414 0.27483 0
vt 0.172593 0.975675 0
vt 0.222305 0.00170797 0
vt 0.222305 0.036022 0
vt 0.21394 0.00173402 0
vt 0.21394 0.036047 0
vt 0.222305 0.749007 0
vt 0.21394 0.749032 0
vt 0.15582 0.846221 0
vt 0.147454 0.846221 0
vt 0.155819 0.87951 0
vt 0.147454 0.87951 0
vt 0.18344 0.033445 0
vt 0.191806 0.03342 0
vt 0.18344 0.00173402 0
vt 0.191806 0.00170797 0
vt 0.576143 0.27481 0
vt 0.965765 0.946013 0
vt 0.958365 0.960964 0
vt 0.950965 0.975915 0
vt 0.024472 0.024563 0
vt 0.499972 0.870127 0
vt -0.002303 0.05767 0
vt 0.476904 0.870126 0
vt 0.983154 0.02336 0
vt 0.992301 0.041399 0
vt 0.52304 0.870128 0
vt 1.00145 0.059438 0

# 11 vertex normals
vn 1 0 0
vn 0 0 1
vn 0 1 0
vn 0 -1 0
vn -1 0 0
vn -0.783387 0 -0.621534
vn -0.866027 0 0.499998
vn -0.00133 0 -0.999999
vn 0.895772 0 -0.444514
vn 0.865363 0 0.501146
vn 0.89577 0 -0.444517

# Mesh 'Root_sign-warning0' with 32 faces
g Root_sign-warning0
usemtl __DefaultEmpty
f  1/1/1 2/2/1 3/3/1
f  2/2/1 4/4/1 3/3/1
f  5/5/2 1/6/2 6/7/2
f  1/6/2 3/8/2 6/7/2
f  7/9/3 6/10/3 4/11/3
f  6/10/3 3/12/3 4/11/3
f  5/13/4 8/14/4 1/15/4
f  8/14/4 2/16/4 1/15/4
f  7/17/5 8/18/5 6/19/5
f  8/18/5 5/20/5 6/19/5
f  9/21/6 10/22/6 11/23/6
f  9/21/6 11/23/6 12/24/6
f  13/25/2 14/26/2 15/27/2
f  14/26/2 16/28/2 15/27/2
f  9/29/3 17/30/3 15/31/3
f  9/29/3 15/31/3 10/32/3
f  15/33/2 17/34/2 13/35/2
f  17/34/2 18/36/2 13/35/2
f  17/34/7 9/37/7 12/38/7
f  17/34/7 12/38/7 18/36/7
f  10/22/8 19/39/8 11/23/8
f  19/39/8 20/40/8 11/23/8
f  19/39/9 21/41/9 22/42/9
f  19/39/9 22/42/9 20/40/9
f  14/26/10 23/43/10 16/28/10
f  23/43/10 24/44/10 16/28/10
f  23/43/11 22/45/11 24/44/11
f  22/45/11 21/46/11 24/44/11
f  16/47/3 24/48/3 21/49/3
f  16/47/3 21/49/3 15/31/3
f  15/31/3 21/49/3 10/32/3
f  21/49/3 19/50/3 10/32/3

# Mesh 'Root_sign-warning1' with 6 faces
g Root_sign-warning1
usemtl __DefaultEmpty
f  11/51/4 13/52/4 12/53/4
f  13/52/4 18/54/4 12/53/4
f  11/51/4 20/55/4 22/56/4
f  11/51/4 22/56/4 13/52/4
f  13/52/4 22/56/4 14/57/4
f  22/56/4 23/58/4 14/57/4

