# File produced by Open Asset Import Library (http://www.assimp.sf.net)
# (assimp v3.1.0)

mtllib Eds_bin_full.obj.mtl

# 144 vertex positions
v  -0.12 -0.28 0.681482
v  -0.04 -0.28 0.697638
v  -0.04 -0.2 0.714719
v  -0.12 -0.2 0.69312
v  0.04 -0.28 0.680502
v  0.04 -0.2 0.697675
v  0.12 -0.28 0.692215
v  0.12 -0.2 0.699314
v  -0.2 -0.2 0.689016
v  -0.12 -0.12 0.686233
v  -0.2 -0.12 0.681492
v  -0.04 -0.12 0.729789
v  0.04 -0.12 0.710555
v  0.12 -0.12 0.690856
v  0.2 -0.2 0.686492
v  0.2 -0.12 0.680848
v  -0.28 -0.12 0.691001
v  -0.2 -0.04 0.690162
v  -0.28 -0.04 0.686037
v  -0.12 -0.04 0.727635
v  -0.04 -0.04 0.728021
v  0.04 -0.04 0.735755
v  0.12 -0.04 0.763029
v  0.2 -0.04 0.732354
v  0.28 -0.12 0.684022
v  0.28 -0.04 0.719194
v  -0.2 0.04 0.716887
v  -0.28 0.04 0.69775
v  -0.12 0.04 0.735523
v  -0.04 0.04 0.687711
v  0.04 0.04 0.8
v  0.12 0.04 0.709603
v  0.2 0.04 0.74327
v  0.28 0.04 0.726839
v  -0.2 0.12 0.720756
v  -0.28 0.12 0.698152
v  -0.12 0.12 0.722525
v  -0.04 0.12 0.693245
v  0.04 0.12 0.747615
v  0.12 0.12 0.735978
v  0.2 0.12 0.700704
v  0.28 0.12 0.713531
v  -0.12 0.2 0.696716
v  -0.2 0.2 0.68038
v  -0.04 0.2 0.707381
v  0.04 0.2 0.712562
v  0.12 0.2 0.705831
v  0.2 0.2 0.717069
v  -0.04 0.28 0.715332
v  -0.12 0.28 0.693327
v  0.04 0.28 0.684996
v  0.12 0.28 0.682871
v  0.12 0.313446 0.68
v  0.04 0.334882 0.68
v  -0.272099 0.2 0.68
v  -0.2 0.272099 0.68
v  -0.12 -0.313446 0.68
v  -0.04 -0.334882 0.68
v  0.192098 -0.28 0.68
v  0.2 -0.272098 0.68
v  0.272098 0.2 0.68
v  0.2 0.272098 0.68
v  -0.313446 -0.12 0.68
v  -0.334882 -0.04 0.68
v  -0.334882 0.04 0.68
v  -0.313446 0.12 0.68
v  -0.04 0.334882 0.68
v  -0.12 0.313446 0.68
v  0.192098 0.28 0.68
v  -0.272099 -0.2 0.68
v  -0.28 -0.192099 0.68
v  0.313446 0.12 0.68
v  0.299298 0.1728 0.68
v  0.28 0.192098 0.68
v  0.272098 -0.2 0.68
v  0.28 -0.192098 0.68
v  -0.28 0.192098 0.68
v  0.04 -0.334882 0.68
v  0.12 -0.313446 0.68
v  -0.192098 -0.28 0.68
v  -0.2 -0.272098 0.68
v  0.313446 -0.12 0.68
v  0.334882 -0.04 0.68
v  0.334882 0.04 0.68
v  -0.192099 0.28 0.68
v  0 0.3456 0.68
v  -0.1728 -0.299298 0.68
v  0.299298 -0.1728 0.68
v  0.3456 0 0.68
v  -0.1728 0.299298 0.68
v  0.1728 -0.299298 0.68
v  -0.299298 -0.1728 0.68
v  -0.3456 0 0.68
v  -0.299299 0.1728 0.68
v  0.1728 0.299298 0.68
v  0 -0.3456 0.68
v  0.27648 0 0.04
v  0.239439 0.13824 0.04
v  0.13824 0.239439 0.04
v  0 0.27648 0.04
v  -0.13824 0.239439 0.04
v  -0.239439 0.13824 0.04
v  -0.27648 0 0.04
v  -0.239439 -0.13824 0.04
v  -0.13824 -0.239439 0.04
v  0 -0.27648 0.04
v  0.13824 -0.239439 0.04
v  0.239439 -0.13824 0.04
v  0 0.32 0
v  0 0.4 0.8
v  0.2 0.34641 0.8
v  0.16 0.277128 0
v  0.34641 0.2 0.8
v  0.277128 0.16 0
v  0.4 0 0.8
v  0.32 0 0
v  0.34641 -0.2 0.8
v  0.277128 -0.16 0
v  0.2 -0.34641 0.8
v  0.16 -0.277128 0
v  0 -0.4 0.8
v  0 -0.32 0
v  -0.2 -0.34641 0.8
v  -0.16 -0.277128 0
v  -0.34641 -0.2 0.8
v  -0.277128 -0.16 0
v  -0.4 0 0.8
v  -0.32 0 0
v  -0.34641 0.2 0.8
v  -0.277128 0.16 0
v  -0.2 0.34641 0.8
v  -0.18 0.311769 0.8
v  0 0.36 0.8
v  -0.16 0.277128 0
v  -0.311769 0.18 0.8
v  -0.36 0 0.8
v  -0.311769 -0.18 0.8
v  -0.18 -0.311769 0.8
v  0 -0.36 0.8
v  0.18 -0.311769 0.8
v  0.311769 -0.18 0.8
v  0.36 0 0.8
v  0.311769 0.18 0.8
v  0.18 0.311769 0.8

# 244 UV coordinates
vt 0.479173 0.78805 0
vt 0.450421 0.779552 0
vt 0.458002 0.747879 0
vt 0.486785 0.756385 0
vt 0.421863 0.771092 0
vt 0.429442 0.73942 0
vt 0.393137 0.762599 0
vt 0.400775 0.730939 0
vt 0.515466 0.764869 0
vt 0.494503 0.724741 0
vt 0.523189 0.733226 0
vt 0.465594 0.71621 0
vt 0.437046 0.707753 0
vt 0.408503 0.699297 0
vt 0.372191 0.722474 0
vt 0.379902 0.690829 0
vt 0.551792 0.741695 0
vt 0.530818 0.701564 0
vt 0.5595 0.710049 0
vt 0.501943 0.69304 0
vt 0.473283 0.68456 0
vt 0.44458 0.676072 0
vt 0.415764 0.66756 0
vt 0.387284 0.659117 0
vt 0.351226 0.682346 0
vt 0.358702 0.650652 0
vt 0.538342 0.669881 0
vt 0.567111 0.678383 0
vt 0.509577 0.66138 0
vt 0.481195 0.652957 0
vt 0.451888 0.644344 0
vt 0.423752 0.635972 0
vt 0.394899 0.627452 0
vt 0.366336 0.618991 0
vt 0.545999 0.638225 0
vt 0.574788 0.646731 0
vt 0.517331 0.629743 0
vt 0.488842 0.621298 0
vt 0.319442 0.219629 0
vt 0.319442 0.272215 0
vt 0.283005 0.255039 0
vt 0.287575 0.229222 0
vt 0.431279 0.604289 0
vt 0.45987 0.612754 0
vt 0.402824 0.59585 0
vt 0.374092 0.587356 0
vt 0.525159 0.598122 0
vt 0.553911 0.606621 0
vt 0.496439 0.58963 0
vt 0.467751 0.581144 0
vt 0.439132 0.572672 0
vt 0.410409 0.56418 0
vt 0.504072 0.557969 0
vt 0.532858 0.566474 0
vt 0.475589 0.549525 0
vt 0.446944 0.541048 0
vt 0.450171 0.527819 0
vt 0.480886 0.527817 0
vt 0.579741 0.614264 0
vt 0.560834 0.578096 0
vt 0.475971 0.801285 0
vt 0.445255 0.801286 0
vt 0.36738 0.754971 0
vt 0.365308 0.751007 0
vt 0.384796 0.556582 0
vt 0.417544 0.535698 0
vt 0.563837 0.745253 0
vt 0.579195 0.715873 0
vt 0.586874 0.684222 0
vt 0.586874 0.650298 0
vt 0.509544 0.536297 0
vt 0.536145 0.553257 0
vt 0.421133 0.53341 0
vt 0.541346 0.772522 0
vt 0.544935 0.770233 0
vt 0.362305 0.583851 0
vt 0.372441 0.56446 0
vt 0.381207 0.55887 0
vt 0.346401 0.71484 0
vt 0.344329 0.710876 0
vt 0.581813 0.618227 0
vt 0.416597 0.792807 0
vt 0.389997 0.775846 0
vt 0.505009 0.795694 0
vt 0.508598 0.793405 0
vt 0.339268 0.678805 0
vt 0.339268 0.644882 0
vt 0.346947 0.61323 0
vt 0.558762 0.574132 0
vt 0.496244 0.527817 0
vt 0.496243 0.801284 0
vt 0.339268 0.701195 0
vt 0.339268 0.62792 0
vt 0.553701 0.564452 0
vt 0.372441 0.764652 0
vt 0.553701 0.764644 0
vt 0.586874 0.701184 0
vt 0.586874 0.627908 0
vt 0.429898 0.52782 0
vt 0.429898 0.801287 0
vt 0.675201 0.435258 0
vt 0.937897 0.428627 0
vt 0.93881 0.474568 0
vt 0.676343 0.492684 0
vt 0.62008 0.00333399 0
vt 0.882547 0.021451 0
vt 0.881634 0.067392 0
vt 0.618939 0.060761 0
vt 0.618938 0.127071 0
vt 0.881634 0.12044 0
vt 0.882547 0.166381 0
vt 0.62008 0.184497 0
vt 0.594684 0.775684 0
vt 0.857152 0.793801 0
vt 0.856238 0.839741 0
vt 0.593543 0.833111 0
vt 0.856238 0.892789 0
vt 0.593543 0.89942 0
vt 0.857152 0.93873 0
vt 0.594684 0.956846 0
vt 0.265802 0.925273 0
vt 0.003334 0.907157 0
vt 0.004248 0.861216 0
vt 0.266944 0.867847 0
vt 0.004248 0.808168 0
vt 0.266944 0.801537 0
vt 0.003334 0.762227 0
vt 0.265802 0.744111 0
vt 0.676343 0.311522 0
vt 0.93881 0.329638 0
vt 0.937897 0.375579 0
vt 0.675201 0.368948 0
vt 0.471386 0.807956 0
vt 0.367188 0.833238 0
vt 0.415546 0.807956 0
vt 0.339268 0.927593 0
vt 0.339268 0.877029 0
vt 0.415546 0.996666 0
vt 0.367188 0.971383 0
vt 0.519744 0.971383 0
vt 0.471386 0.996665 0
vt 0.547663 0.877028 0
vt 0.547663 0.927593 0
vt 0.519744 0.833238 0
vt 0.284062 0.077456 0
vt 0.61227 0.069783 0
vt 0.61227 0.146511 0
vt 0.284062 0.138839 0
vt 0.610948 0.21296 0
vt 0.283005 0.191998 0
vt 0.332599 0.500185 0
vt 0.004655 0.521148 0
vt 0.003334 0.454699 0
vt 0.331542 0.447026 0
vt 0.003334 0.377971 0
vt 0.331542 0.385643 0
vt 0.004655 0.311522 0
vt 0.332599 0.332485 0
vt 0.332599 0.71648 0
vt 0.004656 0.737442 0
vt 0.003334 0.670994 0
vt 0.331542 0.663321 0
vt 0.003334 0.594265 0
vt 0.331542 0.601938 0
vt 0.004656 0.527817 0
vt 0.332599 0.548779 0
vt 0.668533 0.500185 0
vt 0.340589 0.521148 0
vt 0.339268 0.454699 0
vt 0.667476 0.447026 0
vt 0.339268 0.377971 0
vt 0.667476 0.385643 0
vt 0.10326 0.304853 0
vt 0.03991 0.26446 0
vt 0.049902 0.253423 0
vt 0.106917 0.289777 0
vt 0.283005 0.024297 0
vt 0.610948 0.00333399 0
vt 0.340589 0.311522 0
vt 0.668533 0.332484 0
vt 0.811957 0.616102 0
vt 0.732012 0.527817 0
vt 0.782695 0.560131 0
vt 0.622804 0.560131 0
vt 0.673488 0.527817 0
vt 0.593543 0.68073 0
vt 0.593543 0.616101 0
vt 0.673487 0.769015 0
vt 0.622805 0.736701 0
vt 0.782695 0.736701 0
vt 0.732012 0.769015 0
vt 0.811957 0.68073 0
vt 0.863119 0.670782 0
vt 0.8642 0.737133 0
vt 0.819664 0.732947 0
vt 0.818625 0.66925 0
vt 0.003334 0.194495 0
vt 0.016984 0.190455 0
vt 0.003334 0.113704 0
vt 0.016985 0.117743 0
vt 0.03991 0.043735 0
vt 0.049902 0.054771 0
vt 0.10326 0.00333703 0
vt 0.106918 0.018413 0
vt 0.176411 0.00333399 0
vt 0.172753 0.01841 0
vt 0.239761 0.043727 0
vt 0.229768 0.054764 0
vt 0.276336 0.113693 0
vt 0.262686 0.117733 0
vt 0.276336 0.194484 0
vt 0.262686 0.190445 0
vt 0.239761 0.264452 0
vt 0.229768 0.253416 0
vt 0.176411 0.30485 0
vt 0.172753 0.289774 0
vt 0.319187 0.744111 0
vt 0.318105 0.810462 0
vt 0.273612 0.811994 0
vt 0.274651 0.748298 0
vt 0.318105 0.887077 0
vt 0.273612 0.885545 0
vt 0.319187 0.953427 0
vt 0.274651 0.949241 0
vt 0.934791 0.00333399 0
vt 0.933709 0.069685 0
vt 0.889216 0.071217 0
vt 0.890255 0.00752097 0
vt 0.933709 0.1463 0
vt 0.889216 0.144768 0
vt 0.934791 0.212651 0
vt 0.890255 0.208464 0
vt 0.916444 0.527817 0
vt 0.915362 0.594167 0
vt 0.870869 0.595699 0
vt 0.871908 0.532003 0
vt 0.915362 0.670783 0
vt 0.870869 0.66925 0
vt 0.863119 0.594167 0
vt 0.818625 0.595699 0
vt 0.916444 0.737133 0
vt 0.871908 0.732947 0
vt 0.8642 0.527817 0
vt 0.819664 0.532003 0

# 127 vertex normals
vn -0.226239 -0.172093 0.958749
vn 0.204479 -0.204921 0.957181
vn -0.082225 -0.149482 0.98534
vn -0.054983 0.089569 0.994462
vn -0.37672 -0.047311 0.925118
vn 0.21798 -0.16794 0.961395
vn 0.112121 -0.027451 0.993315
vn 0.140724 0.086928 0.986225
vn 0.033626 -0.023147 0.999166
vn -0.244173 -0.289624 0.925471
vn -0.257582 -0.232328 0.93791
vn 0.070931 -0.144539 0.986953
vn -0.04041 -0.519451 0.853544
vn 0.197223 -0.599569 0.775641
vn 0.054796 -0.475615 0.877945
vn -0.139973 -0.23129 0.962763
vn -0.32423 -0.20002 0.92459
vn 0.278975 0.190715 0.94117
vn -0.595825 -0.118817 0.794277
vn 0.366265 -0.062774 0.928391
vn -0.018068 0.256742 0.966311
vn 0.180691 -0.113336 0.976988
vn -0.252348 -0.02582 0.967292
vn -0.126301 0.056508 0.990381
vn 0.433687 0.041988 0.900085
vn -0.706982 0.198746 0.678732
vn 0.532703 0.135796 0.835336
vn 0.009994 0.100674 0.994869
vn 0.021257 0.329611 0.943878
vn -0.103994 0.380173 0.91905
vn 0.115262 0.072277 0.990702
vn -0.346229 0.121606 0.930235
vn 0.105717 0.375253 0.920874
vn 0.14802 0.084872 0.985336
vn -0.199988 -0.027926 0.9794
vn 0.154188 0.12023 0.980699
vn 0.052706 0.300714 0.952257
vn 0.025104 0.088683 0.995743
vn -0.005271 0.005271 0.999972
vn -0.126026 -0.209879 0.969571
vn 0.157652 -0.087292 0.983629
vn 0.089329 -0.089328 0.991988
vn 0.166266 -0.096067 0.98139
vn 0.415843 0.415842 0.808796
vn -0.189408 0.005086 0.981885
vn -0.376114 0.048064 0.925326
vn -0.182019 0.474456 0.861255
vn 0.038248 0.275662 0.960493
vn 0.415845 0.415842 0.808794
vn -0.127091 0.406654 0.904699
vn -0.149154 -0.149154 0.9775
vn 0.117526 0.092986 0.988707
vn -0.122731 -0.147091 0.981479
vn 0.585122 0.271435 0.76417
vn -0.039552 0.070327 0.99674
vn 0.055617 -0.055617 0.996902
vn 0.089531 -0.058833 0.994245
vn -0.237186 0.237185 0.942065
vn -0.004706 0.450563 0.892732
vn -0.264079 0.238156 0.934636
vn 0.449869 -0.17899 0.874975
vn 0.388566 0.388566 0.835484
vn -0.147086 0.369963 0.917329
vn -0.05329 -0.142302 0.988388
vn -0.123136 -0.123136 0.984721
vn -0.050709 -0.143784 0.988309
vn -0.020411 -0.113954 0.993276
vn 0.425721 -0.248306 0.870118
vn 0.665394 0.149968 0.731273
vn -0.181602 0.041623 0.982491
vn -0.200008 0.024407 0.97949
vn 0.089328 -0.089328 0.991989
vn -0.143542 0.535705 0.832115
vn 0.024282 0.090624 0.995589
vn 0.340776 0.276226 0.898649
vn -0.015684 -0.033809 0.999305
vn 0.091384 -0.042393 0.994913
vn 0.647463 -0.072502 0.75864
vn 0 0 1
vn 0.581162 1e-006 0.813788
vn -0.13384 0.288514 0.948075
vn 0.123679 -0.26661 0.955836
vn -0.242104 -0.112311 0.963728
vn -0.304786 -0.137972 0.942374
vn -0.109348 0 0.994003
vn -0.377016 0.174897 0.909544
vn 0.030334 0.06539 0.997399
vn 0.199819 -0.299804 0.93284
vn 0.002451 -0.009147 0.999955
vn -0.001763 -0.006578 0.999977
vn 0.960712 0.257422 -0.103757
vn 0.70329 0.703291 -0.103757
vn -0.257422 0.960712 -0.103757
vn -0.703291 0.70329 -0.103757
vn -0.960712 0.257422 -0.103757
vn -0.960712 -0.257423 -0.103757
vn -0.70329 -0.703291 -0.103757
vn -0.257422 -0.960712 -0.103757
vn 0.257422 -0.960712 -0.103757
vn 0.70329 -0.70329 -0.103757
vn 0.960712 -0.257422 -0.103757
vn 0.257422 0.960712 -0.103757
vn 0 0 -1
vn 0.25762 0.961451 -0.096145
vn 0.703831 0.703831 -0.096145
vn 0.961451 0.25762 -0.096145
vn 0.961451 -0.25762 -0.096145
vn 0.703831 -0.703831 -0.096145
vn 0.25762 -0.961451 -0.096145
vn -0.25762 -0.961451 -0.096145
vn -0.703831 -0.703831 -0.096145
vn -0.961451 -0.25762 -0.096145
vn -0.961451 0.25762 -0.096145
vn -0.25762 0.961451 -0.096145
vn -0.703831 0.70383 -0.096145
vn 0.257098 -0.959502 0.11514
vn 0.702405 -0.702404 0.115139
vn 0.959502 -0.257097 0.115139
vn 0.959502 0.257098 0.115139
vn 0.702404 0.702404 0.115139
vn 0.257097 0.959502 0.11514
vn -0.257098 0.959502 0.11514
vn -0.702404 0.702404 0.115141
vn -0.959502 0.257098 0.115141
vn -0.257098 -0.959502 0.11514
vn -0.959502 -0.257097 0.115141
vn -0.702404 -0.702404 0.11514

# Mesh 'Root_Eds_bin_full0' with 180 faces
g Root_Eds_bin_full0
usemtl __DefaultEmpty
f  1/1/1 2/2/1 3/3/1
f  1/1/1 3/3/1 4/4/1
f  2/2/2 5/5/2 6/6/2
f  2/2/2 6/6/2 3/3/2
f  5/5/3 7/7/3 8/8/3
f  5/5/3 8/8/3 6/6/3
f  9/9/4 4/4/4 10/10/4
f  9/9/4 10/10/4 11/11/4
f  4/4/5 3/3/5 12/12/5
f  4/4/5 12/12/5 10/10/5
f  3/3/6 6/6/6 13/13/6
f  3/3/6 13/13/6 12/12/6
f  6/6/7 8/8/7 14/14/7
f  6/6/7 14/14/7 13/13/7
f  8/8/8 15/15/8 16/16/8
f  8/8/8 16/16/8 14/14/8
f  17/17/9 11/11/9 18/18/9
f  17/17/9 18/18/9 19/19/9
f  11/11/10 10/10/10 20/20/10
f  11/11/10 20/20/10 18/18/10
f  10/10/11 12/12/11 21/21/11
f  10/10/11 21/21/11 20/20/11
f  12/12/12 13/13/12 22/22/12
f  12/12/12 22/22/12 21/21/12
f  13/13/13 14/14/13 23/23/13
f  13/13/13 23/23/13 22/22/13
f  14/14/14 16/16/14 24/24/14
f  14/14/14 24/24/14 23/23/14
f  16/16/15 25/25/15 26/26/15
f  16/16/15 26/26/15 24/24/15
f  19/19/16 18/18/16 27/27/16
f  19/19/16 27/27/16 28/28/16
f  18/18/17 20/20/17 29/29/17
f  18/18/17 29/29/17 27/27/17
f  20/20/18 21/21/18 30/30/18
f  20/20/18 30/30/18 29/29/18
f  21/21/19 22/22/19 31/31/19
f  21/21/19 31/31/19 30/30/19
f  22/22/20 23/23/20 32/32/20
f  22/22/20 32/32/20 31/31/20
f  23/23/21 24/24/21 33/33/21
f  23/23/21 33/33/21 32/32/21
f  24/24/22 26/26/22 34/34/22
f  24/24/22 34/34/22 33/33/22
f  28/28/23 27/27/23 35/35/23
f  28/28/23 35/35/23 36/36/23
f  27/27/24 29/29/24 37/37/24
f  27/27/24 37/37/24 35/35/24
f  29/29/25 30/30/25 38/38/25
f  29/29/25 38/38/25 37/37/25
f  30/39/26 31/40/26 39/41/26
f  30/39/26 39/41/26 38/42/26
f  31/31/27 32/32/27 40/43/27
f  31/31/27 40/43/27 39/44/27
f  32/32/28 33/33/28 41/45/28
f  32/32/28 41/45/28 40/43/28
f  33/33/29 34/34/29 42/46/29
f  33/33/29 42/46/29 41/45/29
f  35/35/30 37/37/30 43/47/30
f  35/35/30 43/47/30 44/48/30
f  37/37/31 38/38/31 45/49/31
f  37/37/31 45/49/31 43/47/31
f  38/38/32 39/44/32 46/50/32
f  38/38/32 46/50/32 45/49/32
f  39/44/33 40/43/33 47/51/33
f  39/44/33 47/51/33 46/50/33
f  40/43/34 41/45/34 48/52/34
f  40/43/34 48/52/34 47/51/34
f  43/47/35 45/49/35 49/53/35
f  43/47/35 49/53/35 50/54/35
f  45/49/36 46/50/36 51/55/36
f  45/49/36 51/55/36 49/53/36
f  46/50/37 47/51/37 52/56/37
f  46/50/37 52/56/37 51/55/37
f  51/55/38 52/56/38 53/57/38
f  51/55/38 53/57/38 54/58/38
f  55/59/39 44/48/39 56/60/39
f  2/2/40 1/1/40 57/61/40
f  2/2/40 57/61/40 58/62/40
f  7/7/41 15/15/41 8/8/41
f  59/63/42 60/64/42 15/15/42
f  7/7/43 59/63/43 15/15/43
f  48/52/44 61/65/44 62/66/44
f  63/67/45 17/17/45 19/19/45
f  63/67/45 19/19/45 64/68/45
f  65/69/46 28/28/46 36/36/46
f  65/69/46 36/36/46 66/70/46
f  50/54/47 49/53/47 67/71/47
f  50/54/47 67/71/47 68/72/47
f  47/51/48 69/73/48 52/56/48
f  48/52/49 62/66/49 69/73/49
f  47/51/50 48/52/50 69/73/50
f  70/74/51 17/17/51 71/75/51
f  9/9/52 11/11/52 17/17/52
f  70/74/53 9/9/53 17/17/53
f  42/46/54 72/76/54 73/77/54
f  42/46/54 73/77/54 74/78/54
f  15/15/55 25/25/55 16/16/55
f  75/79/56 76/80/56 25/25/56
f  15/15/57 75/79/57 25/25/57
f  36/36/58 55/59/58 77/81/58
f  35/35/59 44/48/59 55/59/59
f  36/36/60 35/35/60 55/59/60
f  41/45/61 61/65/61 48/52/61
f  42/46/62 74/78/62 61/65/62
f  41/45/63 42/46/63 61/65/63
f  78/82/64 79/83/64 7/7/64
f  78/82/64 7/7/64 5/5/64
f  80/84/65 9/9/65 81/85/65
f  1/1/66 4/4/66 9/9/66
f  80/84/67 1/1/67 9/9/67
f  25/25/68 82/86/68 83/87/68
f  25/25/68 83/87/68 26/26/68
f  34/34/69 84/88/69 72/76/69
f  34/34/69 72/76/69 42/46/69
f  44/48/39 85/89/39 56/60/39
f  43/47/70 50/54/70 85/89/70
f  44/48/71 43/47/71 85/89/71
f  70/74/65 81/85/65 9/9/65
f  60/64/72 75/79/72 15/15/72
f  49/53/73 86/90/73 67/71/73
f  51/55/74 54/58/74 86/90/74
f  49/53/75 51/55/75 86/90/75
f  57/61/76 1/1/76 80/84/76
f  57/61/76 80/84/76 87/91/76
f  76/80/77 88/92/77 82/86/77
f  76/80/77 82/86/77 25/25/77
f  26/26/78 84/88/78 34/34/78
f  83/87/79 89/93/79 84/88/79
f  26/26/80 83/87/80 84/88/80
f  85/89/81 50/54/81 68/72/81
f  85/89/81 68/72/81 90/94/81
f  79/83/82 91/95/82 59/63/82
f  79/83/82 59/63/82 7/7/82
f  63/67/83 92/96/83 71/75/83
f  63/67/83 71/75/83 17/17/83
f  64/68/79 65/69/79 93/97/79
f  19/19/84 28/28/84 65/69/84
f  64/68/85 19/19/85 65/69/85
f  66/70/86 36/36/86 77/81/86
f  66/70/86 77/81/86 94/98/86
f  52/56/87 69/73/87 95/99/87
f  52/56/87 95/99/87 53/57/87
f  58/62/88 5/5/88 2/2/88
f  96/100/89 78/82/89 5/5/89
f  58/62/90 96/100/90 5/5/90
f  89/101/91 97/102/91 98/103/91
f  89/101/91 98/103/91 73/104/91
f  73/105/92 98/106/92 99/107/92
f  73/105/92 99/107/92 95/108/92
f  86/109/93 100/110/93 101/111/93
f  86/109/93 101/111/93 90/112/93
f  90/113/94 101/114/94 102/115/94
f  90/113/94 102/115/94 94/116/94
f  94/116/95 102/115/95 103/117/95
f  94/116/95 103/117/95 93/118/95
f  93/118/96 103/117/96 104/119/96
f  93/118/96 104/119/96 92/120/96
f  92/121/97 104/122/97 105/123/97
f  92/121/97 105/123/97 87/124/97
f  87/124/98 105/123/98 106/125/98
f  87/124/98 106/125/98 96/126/98
f  96/126/99 106/125/99 107/127/99
f  96/126/99 107/127/99 91/128/99
f  91/129/100 107/130/100 108/131/100
f  91/129/100 108/131/100 88/132/100
f  88/132/101 108/131/101 97/102/101
f  88/132/101 97/102/101 89/101/101
f  95/108/102 99/107/102 100/110/102
f  95/108/102 100/110/102 86/109/102
f  99/133/103 101/134/103 100/135/103
f  103/136/103 102/137/103 101/134/103
f  105/138/103 104/139/103 103/136/103
f  107/140/103 106/141/103 105/138/103
f  97/142/103 108/143/103 107/140/103
f  99/133/103 98/144/103 97/142/103
f  99/133/103 103/136/103 101/134/103
f  107/140/103 105/138/103 103/136/103
f  99/133/103 97/142/103 107/140/103
f  99/133/103 107/140/103 103/136/103

# Mesh 'Root_Eds_bin_full1' with 82 faces
g Root_Eds_bin_full1
usemtl __DefaultEmpty
f  109/145/104 110/146/104 111/147/104
f  109/145/104 111/147/104 112/148/104
f  112/148/105 111/147/105 113/149/105
f  112/148/105 113/149/105 114/150/105
f  114/151/106 113/152/106 115/153/106
f  114/151/106 115/153/106 116/154/106
f  116/154/107 115/153/107 117/155/107
f  116/154/107 117/155/107 118/156/107
f  118/156/108 117/155/108 119/157/108
f  118/156/108 119/157/108 120/158/108
f  120/159/109 119/160/109 121/161/109
f  120/159/109 121/161/109 122/162/109
f  122/162/110 121/161/110 123/163/110
f  122/162/110 123/163/110 124/164/110
f  124/164/111 123/163/111 125/165/111
f  124/164/111 125/165/111 126/166/111
f  126/167/112 125/168/112 127/169/112
f  126/167/112 127/169/112 128/170/112
f  128/170/113 127/169/113 129/171/113
f  128/170/113 129/171/113 130/172/113
f  110/173/79 131/174/79 132/175/79
f  110/173/79 132/175/79 133/176/79
f  134/177/114 131/178/114 110/146/114
f  134/177/114 110/146/114 109/145/114
f  130/172/115 129/171/115 131/179/115
f  130/172/115 131/179/115 134/180/115
f  109/181/103 130/182/103 134/183/103
f  126/184/103 128/185/103 130/182/103
f  122/186/103 124/187/103 126/184/103
f  118/188/103 120/189/103 122/186/103
f  114/190/103 116/191/103 118/188/103
f  109/181/103 112/192/103 114/190/103
f  109/181/103 126/184/103 130/182/103
f  118/188/103 122/186/103 126/184/103
f  109/181/103 114/190/103 118/188/103
f  109/181/103 118/188/103 126/184/103
f  133/193/116 132/194/116 90/195/116
f  133/193/116 90/195/116 86/196/116
f  131/174/79 129/197/79 135/198/79
f  131/174/79 135/198/79 132/175/79
f  129/197/79 127/199/79 136/200/79
f  129/197/79 136/200/79 135/198/79
f  127/199/79 125/201/79 137/202/79
f  127/199/79 137/202/79 136/200/79
f  125/201/79 123/203/79 138/204/79
f  125/201/79 138/204/79 137/202/79
f  123/203/79 121/205/79 139/206/79
f  123/203/79 139/206/79 138/204/79
f  121/205/79 119/207/79 140/208/79
f  121/205/79 140/208/79 139/206/79
f  119/207/79 117/209/79 141/210/79
f  119/207/79 141/210/79 140/208/79
f  117/209/79 115/211/79 142/212/79
f  117/209/79 142/212/79 141/210/79
f  115/211/79 113/213/79 143/214/79
f  115/211/79 143/214/79 142/212/79
f  113/213/79 111/215/79 144/216/79
f  113/213/79 144/216/79 143/214/79
f  111/215/79 110/173/79 133/176/79
f  111/215/79 133/176/79 144/216/79
f  132/217/117 135/218/117 94/219/117
f  132/217/117 94/219/117 90/220/117
f  135/218/118 136/221/118 93/222/118
f  135/218/118 93/222/118 94/219/118
f  136/221/119 137/223/119 92/224/119
f  136/221/119 92/224/119 93/222/119
f  137/225/120 138/226/120 87/227/120
f  137/225/120 87/227/120 92/228/120
f  138/226/121 139/229/121 96/230/121
f  138/226/121 96/230/121 87/227/121
f  139/229/122 140/231/122 91/232/122
f  139/229/122 91/232/122 96/230/122
f  140/233/123 141/234/123 88/235/123
f  140/233/123 88/235/123 91/236/123
f  141/234/124 142/237/124 89/238/124
f  141/234/124 89/238/124 88/235/124
f  144/239/125 133/193/125 86/196/125
f  144/239/125 86/196/125 95/240/125
f  142/237/126 143/241/126 73/242/126
f  142/237/126 73/242/126 89/238/126
f  143/243/127 144/239/127 95/240/127
f  143/243/127 95/240/127 73/244/127

