# File produced by Open Asset Import Library (http://www.assimp.sf.net)
# (assimp v3.1.0)

mtllib Eds_Hege.obj.mtl

# 56 vertex positions
v  0.532922 -2.93292 1.95622
v  0.556221 -2.93292 1.93292
v  0.556221 2.93292 1.93292
v  0.532922 2.93292 1.95622
v  0.532922 2.93292 0.003779
v  0.556221 2.93292 0.027078
v  0.556221 -2.93292 0.027078
v  0.532922 -2.93292 0.003779
v  -0.532922 2.93292 1.95622
v  -0.532922 -2.93292 1.95622
v  -0.556221 -2.93292 1.93292
v  -0.532922 -2.95622 1.93292
v  -0.556221 -2.93292 0.027078
v  -0.532922 -2.95622 0.027078
v  0.532922 -2.95622 0.027078
v  0.532922 -2.95622 1.93292
v  -0.532922 2.95622 1.93292
v  0.532922 2.95622 1.93292
v  0.532922 2.95622 0.027078
v  -0.532922 2.95622 0.027078
v  -0.532922 2.93292 0.003779
v  -0.532922 -2.93292 0.003779
v  -0.556221 2.93292 0.027078
v  -0.556221 2.93292 1.93292
v  0.65 3.06 0
v  -0.65 3.06 0
v  -0.65 -3.06 0
v  0.65 -3.06 0
v  -0.65 -3.06 -0.1
v  -0.65 3.06 -0.1
v  0.65 3.06 -0.1
v  0.65 -3.06 -0.1
v  0.6 -2.95 0.05
v  0.55 -3 0.05
v  0.55 -2.95 0
v  0.55 2.95 0
v  0.6 2.95 0.05
v  0.6 -2.95 1.95
v  0.6 2.95 1.95
v  -0.55 3 1.95
v  0.55 3 1.95
v  0.55 3 0.05
v  -0.55 3 0.05
v  -0.55 2.95 2
v  0.55 2.95 2
v  -0.55 -3 1.95
v  -0.55 -3 0.05
v  0.55 -3 1.95
v  -0.55 -2.95 0
v  -0.55 -2.95 2
v  0.55 -2.95 2
v  -0.6 -2.95 1.95
v  -0.6 -2.95 0.05
v  -0.6 2.95 0.05
v  -0.55 2.95 0
v  -0.6 2.95 1.95

# 113 UV coordinates
vt -0.293059 -1.98987 0
vt -0.283067 -1.98987 0
vt -0.283066 0.560813 0
vt -0.293059 0.560813 0
vt 2.44387 2.98987 0
vt 2.43388 2.98987 0
vt 2.43388 0.439188 0
vt 2.44387 0.439188 0
vt 0.53431 -1.98987 0
vt 0.534311 0.560813 0
vt -0.283067 2.37455 0
vt -0.283067 0.570944 0
vt 0.174051 0.570944 0
vt 0.174052 2.37455 0
vt -0.97393 0.616182 0
vt -0.983923 0.623346 0
vt -0.983923 0.609018 0
vt 0.544304 0.570944 0
vt 0.544304 0.560813 0
vt 1.36168 0.560813 0
vt 1.36168 0.570944 0
vt -0.983923 1.20935 0
vt -1.44104 1.20935 0
vt -1.44104 0.623346 0
vt -0.283067 2.38888 0
vt 0.174052 2.38888 0
vt 0.174052 2.97488 0
vt -0.283067 2.97488 0
vt 2.90099 2.98987 0
vt 2.90099 3 0
vt 2.44387 3 0
vt 0.184044 2.38171 0
vt -0.283066 0.570944 0
vt 0.534311 0.570944 0
vt 2.44387 0.429056 0
vt 2.90099 0.429056 0
vt 2.90099 0.439188 0
vt -1.44104 0.609018 0
vt 2.91098 0.439188 0
vt -0.283067 -2 0
vt 0.53431 -2 0
vt -1.45103 0.616182 0
vt 2.91098 2.98987 0
vt -0.293059 2.38171 0
vt 0.544303 -2 0
vt 1.36168 -2 0
vt 1.36168 -1.98987 0
vt 0.544303 -1.98987 0
vt 0.534311 -1.98987 0
vt -0.617535 0.993693 0
vt -0.617535 0.756308 0
vt 1.61753 0.756307 0
vt 1.61753 0.993692 0
vt -0.242536 0.85337 0
vt -0.242536 0.87163 0
vt 1.99254 0.87163 0
vt 1.99254 0.85337 0
vt 0.262615 0.85337 0
vt 0.262615 0.87163 0
vt 0.737385 0.87163 0
vt 0.737385 0.85337 0
vt 1.61754 0.993692 0
vt 1.61754 0.756308 0
vt -0.617536 0.756308 0
vt -0.617536 0.993693 0
vt 1.91922 -1.97826 0
vt 1.94067 -2 0
vt 1.94067 -1.97826 0
vt 1.94067 0.587275 0
vt 1.91922 0.587275 0
vt -1.94424 -1.97826 0
vt -1.12937 -1.97826 0
vt -1.12937 0.587276 0
vt -1.94424 0.587276 0
vt 2.45532 -0.155148 0
vt 2.92709 -0.155148 0
vt 2.92709 0.429056 0
vt 2.45532 0.429056 0
vt 2.45532 -0.185896 0
vt 2.92709 -0.185896 0
vt -1.94424 0.609018 0
vt -1.12937 0.609017 0
vt 2.94853 -0.170522 0
vt 1.94067 0.609017 0
vt -1.47248 0.639765 0
vt -1.47248 1.22397 0
vt -1.94424 1.22397 0
vt -1.94424 0.639765 0
vt 2.41243 -2 0
vt 2.41243 -1.97826 0
vt -1.47248 0.609018 0
vt -1.10793 0.609017 0
vt -1.10793 0.587276 0
vt -0.293059 0.587276 0
vt -0.293059 0.609017 0
vt -1.45103 0.624392 0
vt 2.43388 -1.97826 0
vt 2.43388 0.587275 0
vt 2.41244 0.609017 0
vt 2.41244 0.587275 0
vt 2.43388 -0.170522 0
vt -1.10793 -2 0
vt -0.29306 -2 0
vt -0.29306 -1.97826 0
vt -1.10793 -1.97826 0
vt -1.94424 -2 0
vt -1.12937 -2 0
vt -1.96569 0.624392 0
vt -1.12937 -1.97826 0
vt -1.96569 -1.97826 0
vt -1.96569 0.587276 0
vt 2.45532 -2 0
vt 2.92709 -2 0

# 30 vertex normals
vn 0.341563 -0.341563 0.875576
vn 0.875576 -0.341563 0.341563
vn 0.875576 0.341563 0.341563
vn 0.341563 0.341563 0.875576
vn 0.460555 0.460555 -0.758782
vn 0.875576 0.341563 -0.341563
vn 0.875576 -0.341563 -0.341563
vn 0.460555 -0.460555 -0.758782
vn -0.341563 0.341563 0.875576
vn -0.341563 -0.341563 0.875576
vn -0.875576 -0.341563 0.341563
vn -0.341563 -0.875576 0.341563
vn -0.875576 -0.341563 -0.341563
vn -0.341563 -0.875576 -0.341563
vn 0.341563 -0.875576 -0.341563
vn 0.341563 -0.875576 0.341563
vn -0.341563 0.875576 0.341563
vn 0.341563 0.875576 0.341563
vn 0.341563 0.875576 -0.341563
vn -0.341563 0.875576 -0.341563
vn -0.460555 0.460555 -0.758782
vn -0.460555 -0.460555 -0.758782
vn -0.875576 0.341563 -0.341563
vn -0.875576 0.341563 0.341563
vn 0 0 1
vn -1 0 0
vn 0 1 0
vn 1 0 0
vn 0 -1 0
vn 0 0 -1

# Mesh 'Root_Eds_Hege0' with 42 faces
g Root_Eds_Hege0
usemtl __DefaultEmpty
f  1/1/1 2/2/2 3/3/3
f  1/1/1 3/3/3 4/4/4
f  5/5/5 6/6/6 7/7/7
f  5/5/5 7/7/7 8/8/8
f  2/2/2 7/9/7 6/10/6
f  2/2/2 6/10/6 3/3/3
f  9/11/9 10/12/10 1/13/1
f  9/11/9 1/13/1 4/14/4
f  11/15/11 12/16/12 10/17/10
f  12/18/12 11/19/11 13/20/13
f  12/18/12 13/20/13 14/21/14
f  12/16/12 14/22/14 15/23/15
f  12/16/12 15/23/15 16/24/16
f  17/25/17 18/26/18 19/27/19
f  17/25/17 19/27/19 20/28/20
f  5/5/5 21/29/21 20/30/20
f  5/5/5 20/30/20 19/31/19
f  9/11/9 4/14/4 18/26/18
f  9/11/9 18/26/18 17/25/17
f  6/6/6 5/5/5 19/31/19
f  3/32/3 18/26/18 4/14/4
f  18/33/18 3/3/3 6/10/6
f  18/33/18 6/10/6 19/34/19
f  8/8/8 15/35/15 14/36/14
f  8/8/8 14/36/14 22/37/22
f  10/17/10 12/16/12 16/24/16
f  10/17/10 16/24/16 1/38/1
f  13/39/13 22/37/22 14/36/14
f  16/40/16 15/41/15 7/9/7
f  16/40/16 7/9/7 2/2/2
f  2/42/2 1/38/1 16/24/16
f  7/7/7 15/35/15 8/8/8
f  23/43/23 20/30/20 21/29/21
f  24/44/24 9/11/9 17/25/17
f  17/45/17 20/46/20 23/47/23
f  17/45/17 23/47/23 24/48/24
f  11/19/11 24/48/24 23/47/23
f  11/19/11 23/47/23 13/20/13
f  21/29/21 22/37/22 13/39/13
f  21/29/21 13/39/13 23/43/23
f  10/10/10 9/49/9 24/48/24
f  10/10/10 24/48/24 11/19/11

# Mesh 'Root_Eds_Hege1' with 12 faces
g Root_Eds_Hege1
usemtl __DefaultEmpty
f  25/50/25 26/51/25 27/52/25
f  25/50/25 27/52/25 28/53/25
f  29/54/26 27/55/26 26/56/26
f  29/54/26 26/56/26 30/57/26
f  30/58/27 26/59/27 25/60/27
f  30/58/27 25/60/27 31/61/27
f  32/54/28 31/57/28 25/56/28
f  32/54/28 25/56/28 28/55/28
f  29/58/29 32/61/29 28/60/29
f  29/58/29 28/60/29 27/59/29
f  32/62/30 29/63/30 30/64/30
f  32/62/30 30/64/30 31/65/30

# Mesh 'Root_Eds_Hege2' with 42 faces
g Root_Eds_Hege2
usemtl __DefaultEmpty
f  33/66/7 34/67/15 35/68/8
f  33/66/7 35/68/8 36/69/5
f  33/66/7 36/69/5 37/70/6
f  38/71/2 33/72/7 37/73/6
f  38/71/2 37/73/6 39/74/3
f  40/75/17 41/76/18 42/77/19
f  40/75/17 42/77/19 43/78/20
f  44/79/9 45/80/4 41/76/18
f  44/79/9 41/76/18 40/75/17
f  41/81/18 39/74/3 37/73/6
f  41/81/18 37/73/6 42/82/19
f  39/83/3 41/76/18 45/80/4
f  37/70/6 36/69/5 42/84/19
f  46/85/12 47/86/14 34/87/15
f  46/85/12 34/87/15 48/88/16
f  35/68/8 34/67/15 47/89/14
f  35/68/8 47/89/14 49/90/22
f  50/91/10 46/85/12 48/88/16
f  50/91/10 48/88/16 51/81/1
f  46/92/12 52/93/11 53/94/13
f  46/92/12 53/94/13 47/95/14
f  52/96/11 46/85/12 50/91/10
f  53/97/13 49/90/22 47/89/14
f  54/98/23 43/99/20 55/100/21
f  56/101/24 44/79/9 40/75/17
f  40/102/17 43/103/20 54/104/23
f  40/102/17 54/104/23 56/105/24
f  33/72/7 38/71/2 48/106/16
f  33/72/7 48/106/16 34/107/15
f  36/69/5 55/100/21 43/99/20
f  36/69/5 43/99/20 42/84/19
f  38/108/2 51/81/1 48/88/16
f  52/93/11 56/105/24 54/104/23
f  52/93/11 54/104/23 53/94/13
f  55/100/21 49/90/22 53/97/13
f  55/100/21 53/97/13 54/98/23
f  50/73/10 44/109/9 56/105/24
f  50/73/10 56/105/24 52/93/11
f  51/110/1 38/71/2 39/74/3
f  51/110/1 39/74/3 45/111/4
f  44/79/9 50/112/10 51/113/1
f  44/79/9 51/113/1 45/80/4

